<svg width="109" height="116" viewBox="0 0 109 116" fill="none" xmlns="http://www.w3.org/2000/svg">
<path fill-rule="evenodd" clip-rule="evenodd" d="M29.896 113.422C55.9959 123.188 90.6961 104.139 102.312 74.2951C113.927 44.4508 113.444 14.8529 76.0858 2.57463C49.9859 -7.1912 20.9173 12.1009 7.79557 38.9299C-9.50067 74.2944 3.79606 103.656 29.896 113.422ZM54.6059 52.3701C53.8545 51.3474 52.8958 50.1047 51.7708 48.777C52.4199 50.8341 53.0864 52.6471 53.6326 54.0396C53.6362 54.0351 53.6399 54.0307 53.6436 54.0263C53.6492 54.0198 53.6548 54.0133 53.6606 54.0069C53.8607 53.7824 54.0928 53.5275 54.3569 53.2457C54.4328 52.9735 54.5158 52.681 54.6059 52.3701Z" fill="#3B9427"/>
<path d="M52.8524 55.5667C53.0964 55.2074 53.5484 55.0558 53.9694 55.1821C54.5984 55.3709 54.8838 56.0845 54.5496 56.6401C52.5471 59.9687 46.5322 70.2721 44.0401 77.9466C41.3354 86.276 40.2913 99.1745 40.0203 103.205C39.9775 103.841 39.3402 104.27 38.7181 104.084C38.2904 103.955 38.0022 103.566 38.0174 103.127C38.1349 99.7315 38.7889 85.4143 41.6628 76.6147C44.3594 68.3578 51.1198 58.1185 52.8524 55.5667Z" fill="#2F741F"/>
<path d="M53.4513 55.1007C53.422 54.6963 53.6582 54.3277 54.0371 54.1654C54.647 53.9042 55.3439 54.2913 55.4338 54.9378C55.9144 58.3959 57.4157 67.9821 60.0152 74.0349C62.8408 80.6143 69.5075 88.9414 71.8569 91.7734C72.2719 92.2736 72.0881 93.0275 71.4855 93.2856C71.0989 93.4512 70.6507 93.3589 70.372 93.0483C68.3615 90.8068 60.3992 81.6907 57.3812 74.6244C54.5492 67.9935 53.6463 57.7855 53.4513 55.1007Z" fill="#2F741F"/>
<path d="M53.1178 54.1362C53.7522 54.1239 54.2541 54.6278 54.2541 55.25C54.2541 55.9062 53.6944 56.4323 53.0252 56.4239C49.5123 56.3799 39.248 56.6644 32.518 61.1218C25.4623 65.7949 20.5886 78.6854 18.9038 83.7156C18.5837 84.6713 17.3639 85.016 16.585 84.3614C16.1556 84.0006 15.9876 83.4281 16.1734 82.9044C17.4876 79.1994 23.059 64.5785 30.8199 59.4568C37.8675 54.8058 49.4675 54.207 53.1178 54.1362Z" fill="#2F741F"/>
<path fill-rule="evenodd" clip-rule="evenodd" d="M55.4906 55.6422C56.025 55.3067 56.1873 54.6206 55.8346 54.1033C55.5286 53.6544 55.1148 53.0627 54.6059 52.3701C54.5158 52.681 54.4328 52.9735 54.3569 53.2457C54.0928 53.5275 53.8607 53.7824 53.6606 54.0069C53.6548 54.0133 53.6492 54.0198 53.6436 54.0263C53.6399 54.0307 53.6362 54.0351 53.6326 54.0396C53.0864 52.6471 52.4199 50.8341 51.7708 48.777C48.606 45.0419 44.1254 40.6341 39.242 38.5592C30.8684 35.0013 19.7403 36.1736 16.5715 36.6085C16.0526 36.6798 15.6676 37.0976 15.6265 37.6098C15.5673 38.3461 16.2289 38.9486 16.9761 38.8548C20.7182 38.3853 30.8795 37.5398 38.7275 40.8592C46.1848 44.0133 51.9634 52.3357 53.8197 55.2603C54.1733 55.8175 54.9269 55.996 55.4906 55.6422Z" fill="#2F741F"/>
<path fill-rule="evenodd" clip-rule="evenodd" d="M56.0002 56.1623C55.4022 56.5717 54.5791 56.3504 54.3015 55.6891C54.1137 55.2417 53.8861 54.6859 53.6326 54.0396C53.6362 54.0351 53.6399 54.0307 53.6436 54.0263C53.6492 54.0198 53.6548 54.0133 53.6606 54.0069C53.8607 53.7824 54.0928 53.5275 54.3569 53.2457C54.4328 52.9735 54.5158 52.681 54.6059 52.3701C53.8545 51.3474 52.8958 50.1047 51.7708 48.777C50.4859 44.7051 49.2691 39.6766 49.1887 35.06C49.0385 26.4408 51.7957 17.1817 52.8045 14.0965C53.0002 13.4979 53.6524 13.1833 54.2623 13.377C54.9004 13.5796 55.2448 14.2586 55.0375 14.8841C54.0285 17.9294 51.4333 26.6175 51.566 35.0603C51.6932 43.1494 55.223 51.9903 56.412 54.7466C56.6316 55.2556 56.4624 55.8459 56.0002 56.1623Z" fill="#2F741F"/>
<path d="M54.1204 54.1111C53.9234 54.8481 54.5115 55.542 55.2881 55.5135C55.8256 55.4938 56.2828 55.122 56.4131 54.6104C57.1752 51.6193 60.0045 41.5326 65.1902 34.1193C70.6123 26.3682 78.4946 19.9851 81.1671 17.9306C81.6795 17.5368 81.7931 16.8174 81.4181 16.2956C81.0299 15.7554 80.2697 15.6353 79.7417 16.046C76.9441 18.2219 68.6987 24.9577 63.25 32.7722C58.8361 39.1027 55.9422 47.7583 54.6059 52.3701C54.5158 52.681 54.4328 52.9735 54.3569 53.2457C54.2684 53.5628 54.1896 53.8523 54.1204 54.1111Z" fill="#2F741F"/>
<path d="M53.6606 54.0069C53.651 54.0177 53.6416 54.0286 53.6326 54.0396C53.1881 54.5795 53.4146 55.3714 54.0799 55.6336C54.6068 55.8411 55.2189 55.6301 55.5463 55.1754C56.6974 53.5768 59.8792 49.8397 66.8491 45.6482C75.5179 40.4349 92.4625 44.2832 96.7505 45.3801C97.317 45.5251 97.9017 45.2172 98.0869 44.6726C98.2783 44.1096 97.9726 43.5069 97.3913 43.3414C93.0059 42.0931 75.8906 37.7334 67.1888 42.9843C60.8432 46.8134 56.5256 50.9317 54.3569 53.2457C54.0928 53.5275 53.8607 53.7824 53.6606 54.0069Z" fill="#2F741F"/>
<path d="M56.2179 54.415C55.5534 54.328 54.9786 54.8358 54.9741 55.4931C54.97 56.075 55.4197 56.5653 56.0085 56.6387C58.9333 57.0033 67.4109 58.3304 73.5818 62.023C80.017 65.8737 85.2327 72.007 87.1371 74.4099C87.5624 74.9466 88.3669 75.0295 88.8859 74.5789C89.3353 74.1886 89.4088 73.5313 89.04 73.0668C87.1946 70.7426 81.5532 64.0457 74.8534 60.0535C68.5808 56.3158 59.4938 54.8441 56.2179 54.415Z" fill="#2F741F"/>
<path d="M51.7708 48.777C52.8958 50.1047 53.8545 51.3474 54.6059 52.3701C54.5158 52.681 54.4328 52.9735 54.3569 53.2457C54.0928 53.5275 53.8607 53.7824 53.6606 54.0069C53.651 54.0177 53.6416 54.0286 53.6326 54.0396C53.0864 52.6471 52.4199 50.8341 51.7708 48.777Z" fill="#2F741F"/>
</svg>
