<svg width="136" height="135" viewBox="0 0 136 135" fill="none" xmlns="http://www.w3.org/2000/svg">
<path d="M34.7886 25.3755C23.0924 23.9135 17.9927 24.9709 16.7726 37.0034C5.15971 36.8477 15.7634 46.5333 8.95432 48.2997C2.14526 50.066 -7.22704 82.352 8.95432 87.8356C10.2283 96.0312 13.3709 99.1539 22.2114 102.786C24.2573 120.097 28.7225 125.305 45.6663 122.388C54.0862 135.215 59.211 138.955 70.1409 130.362C81.1936 134.338 84.4198 131.325 88.1569 122.388C105.326 125.819 111.653 118.95 121.47 102.786C137.745 91.0485 138.825 82.7407 131.327 65.9081C137.778 47.4872 138.634 38.6457 126.908 30.0267C126.097 9.14416 120.907 5.25207 107.533 5.10914H93.5957C84.4177 -1.86817 73.2001 -1.53593 67.4214 5.10924C61.6427 11.7544 57.5637 11.4214 57.5637 11.4214C42.4475 7.51165 39.5616 12.6789 34.7886 25.3755Z" fill="#3B9427"/>
<path d="M82.6018 70.766C82.6018 76.2706 76.0322 77.7429 70.0246 77.7429C64.0171 77.7429 59.147 73.2805 59.147 67.7759C59.147 62.2712 66.7365 56.8121 72.744 56.8121C78.7515 56.8121 82.6018 65.2614 82.6018 70.766Z" fill="#2F741F"/>
<path d="M67.3098 14.2884C67.3106 14.2901 67.3122 14.293 67.3138 14.2962C67.3168 14.3025 67.3213 14.3121 67.327 14.3241C67.3385 14.3481 67.3551 14.3834 67.3768 14.4292C67.4205 14.5213 67.4845 14.6567 67.5667 14.8328C67.7312 15.185 67.9687 15.7003 68.2645 16.3564C68.8559 17.6683 69.6802 19.5455 70.6134 21.8149C72.4776 26.3483 74.7887 32.4717 76.5535 38.7887C78.3092 45.0734 79.5658 51.6928 79.2204 57.1674C79.2038 57.431 79.1813 57.6932 79.1567 57.9539C79.2219 58.0133 79.2866 58.0734 79.3506 58.1343C81.0128 53.6466 81.844 47.7773 82.1742 41.7613C82.5234 35.399 82.3072 29.0185 82.0016 24.2171C81.849 21.8196 81.6743 19.8226 81.5382 18.427C81.4701 17.7295 81.4121 17.1825 81.3709 16.8113C81.3503 16.6258 81.3335 16.484 81.3224 16.3895C81.3169 16.3422 81.3126 16.3064 81.3098 16.2831C81.3084 16.2717 81.3078 16.2632 81.3071 16.2578C81.3068 16.2552 81.3065 16.2519 81.3065 16.2519L81.3058 16.2506C81.3058 16.2506 81.3061 16.2502 82.9935 16.0521C84.681 15.8539 84.6812 15.8554 84.6812 15.8554L84.6818 15.8574C84.6821 15.8593 84.6821 15.8623 84.6825 15.8658C84.6833 15.8728 84.6849 15.8827 84.6865 15.8957C84.6896 15.922 84.6938 15.9608 84.6997 16.0112C84.7115 16.1119 84.7288 16.2601 84.7502 16.4524C84.7929 16.837 84.8526 17.3986 84.9221 18.1117C85.0612 19.5376 85.2389 21.5714 85.3942 24.0108C85.7044 28.8836 85.9276 35.4026 85.5688 41.9391C85.2118 48.4423 84.2727 55.111 82.1815 60.2049C82.0484 60.5292 81.9087 60.849 81.7639 61.164C81.7651 61.166 81.7667 61.1678 81.7679 61.1698C81.9947 61.5404 82.2095 61.922 82.4119 62.3119C85.8335 58.8365 89.0564 53.7062 91.868 48.2386C94.7988 42.5393 97.2185 36.6046 98.9082 32.083C99.752 29.8252 100.412 27.926 100.859 26.5934C101.083 25.9272 101.254 25.4028 101.369 25.0464C101.426 24.8682 101.469 24.7318 101.497 24.6409C101.512 24.5955 101.522 24.5614 101.529 24.539C101.533 24.5279 101.536 24.5196 101.537 24.5143C101.538 24.5117 101.539 24.5085 101.539 24.5085V24.5072C101.539 24.5072 101.539 24.5073 103.167 24.9867C104.794 25.4662 104.794 25.4675 104.794 25.4675L104.791 25.4773C104.788 25.484 104.785 25.4938 104.781 25.5065C104.773 25.5318 104.762 25.569 104.747 25.6174C104.716 25.7144 104.671 25.8572 104.612 26.0418C104.493 26.411 104.318 26.9489 104.089 27.6297C103.631 28.9912 102.96 30.9253 102.102 33.2225C100.387 37.8113 97.9163 43.876 94.9055 49.7311C91.9099 55.5563 88.3132 61.3068 84.3067 65.1664L84.3047 65.1676C88.3548 62.7265 92.625 58.9102 96.633 54.7113C101.092 50.0402 105.128 45.0038 108.055 41.1248C109.517 39.1878 110.698 37.5448 111.513 36.3878C111.92 35.8094 112.235 35.3522 112.448 35.0414C112.554 34.886 112.635 34.7672 112.689 34.6877C112.716 34.648 112.736 34.6178 112.75 34.5982C112.756 34.5885 112.761 34.5813 112.764 34.5767C112.766 34.5745 112.767 34.5716 112.767 34.5716L112.768 34.5709C112.771 34.5728 112.836 34.6137 114.192 35.4787C115.615 36.3866 115.614 36.3878 115.614 36.3878L115.612 36.3898C115.611 36.3913 115.61 36.3936 115.608 36.3963C115.604 36.4022 115.599 36.4111 115.591 36.4222C115.576 36.4444 115.554 36.4766 115.525 36.5189C115.468 36.6036 115.384 36.7284 115.274 36.8894C115.053 37.2114 114.729 37.6799 114.313 38.2709C113.481 39.4529 112.278 41.1261 110.791 43.0968C107.82 47.0333 103.698 52.1797 99.118 56.9779C94.5715 61.741 89.4726 66.2681 84.5245 68.8819C84.6261 69.6056 84.6798 70.3109 84.6838 70.9831C85.0384 70.9057 85.3981 70.8192 85.7613 70.7209C90.5673 69.4198 95.8208 66.3713 100.763 62.7739C105.679 59.1949 110.167 55.1614 113.434 52.0119C115.065 50.4397 116.386 49.0934 117.298 48.1419C117.754 47.6663 118.107 47.2894 118.345 47.033C118.464 46.9048 118.554 46.8064 118.614 46.741C118.644 46.7083 118.666 46.6843 118.681 46.6683C118.688 46.6603 118.694 46.6538 118.697 46.6501C118.698 46.6484 118.7 46.6462 118.7 46.6462L118.701 46.6456C118.701 46.6456 118.708 46.6515 119.976 47.7448C121.25 48.8435 121.249 48.8447 121.249 48.8447L121.248 48.846C121.246 48.8474 121.245 48.8499 121.242 48.8525C121.238 48.8575 121.231 48.8645 121.222 48.8739C121.205 48.8926 121.181 48.9201 121.148 48.9556C121.083 49.0268 120.987 49.1309 120.863 49.2652C120.613 49.5337 120.248 49.9231 119.779 50.4124C118.842 51.3908 117.489 52.7695 115.821 54.3772C112.491 57.5879 107.879 61.7353 102.793 65.4382C98.2724 68.729 93.2789 71.7397 88.4097 73.3892C91.9149 73.2318 95.7125 72.7284 99.5197 72.0265C105.961 70.8388 112.286 69.1131 117.011 67.6795C119.371 66.9637 121.325 66.3227 122.687 65.8613C123.368 65.6307 123.901 65.445 124.262 65.3175C124.442 65.2538 124.58 65.2045 124.672 65.1715C124.718 65.1551 124.752 65.1428 124.775 65.1346C124.786 65.1305 124.795 65.1274 124.8 65.1255C124.803 65.1246 124.806 65.1235 124.806 65.1235L124.807 65.1229C124.807 65.1229 124.807 65.123 125.402 66.6789C125.969 68.1602 125.996 68.2314 125.997 68.235L125.995 68.2363C125.993 68.237 125.99 68.2377 125.987 68.2389C125.98 68.2413 125.97 68.2447 125.958 68.2493C125.932 68.2585 125.894 68.2726 125.845 68.2901C125.747 68.3253 125.603 68.3767 125.416 68.4426C125.042 68.5746 124.496 68.7651 123.8 69.0007C122.409 69.4719 120.419 70.1244 118.019 70.8526C113.225 72.3072 106.765 74.0714 100.15 75.2911C95.947 76.0659 91.6215 76.6317 87.5898 76.7427C90.8671 77.1954 94.4374 77.4086 98.0511 77.4532C104.607 77.5341 111.158 77.0651 116.082 76.5733C118.541 76.3277 120.588 76.0769 122.017 75.8881C122.732 75.7937 123.292 75.7148 123.672 75.6596C123.861 75.6321 124.006 75.6106 124.103 75.5961C124.152 75.5888 124.188 75.5835 124.212 75.5798C124.224 75.578 124.233 75.5762 124.239 75.5753C124.241 75.5749 124.245 75.5746 124.245 75.5746H124.246C124.247 75.58 124.262 75.6715 124.514 77.2144C124.78 78.8392 124.782 78.8555 124.782 78.8555H124.779C124.777 78.8558 124.774 78.8562 124.771 78.8568C124.764 78.8579 124.753 78.8592 124.74 78.8613C124.713 78.8654 124.674 78.8717 124.622 78.8795C124.519 78.895 124.368 78.9178 124.171 78.9463C123.777 79.0034 123.203 79.0841 122.473 79.1806C121.013 79.3735 118.929 79.629 116.428 79.8788C111.432 80.3777 104.741 80.858 98.0079 80.7749C92.1491 80.7026 86.1439 80.2031 81.1723 78.8594C85.0268 80.7829 89.7812 82.3736 94.7049 83.6618C101.036 85.3184 107.503 86.4408 112.399 87.1497C114.844 87.5036 116.89 87.7536 118.323 87.9147C119.039 87.9952 119.602 88.0531 119.984 88.0912C120.175 88.1102 120.322 88.1242 120.419 88.1334C120.468 88.1379 120.504 88.1416 120.528 88.1437C120.54 88.1448 120.549 88.1458 120.555 88.1463C120.557 88.1466 120.561 88.1463 120.561 88.1463L120.563 88.147C120.562 88.1511 120.554 88.2316 120.409 89.801C120.259 91.4188 120.255 91.4557 120.255 91.4557L120.252 91.4551C120.25 91.4549 120.247 91.4547 120.244 91.4544C120.237 91.4538 120.226 91.453 120.213 91.4518C120.186 91.4493 120.146 91.4456 120.094 91.4408C119.99 91.431 119.837 91.4164 119.64 91.3967C119.244 91.3572 118.667 91.2972 117.935 91.215C116.471 91.0504 114.387 90.7963 111.9 90.4363C106.933 89.7171 100.328 88.5724 93.8259 86.8713C87.3571 85.1787 80.8447 82.8988 76.1565 79.8522C75.8946 79.682 75.6374 79.5071 75.3843 79.3298C75.1108 79.3743 74.8358 79.4156 74.5597 79.4512C75.2089 80.5323 76.0542 81.5928 77.0766 82.6346C80.5188 86.1422 85.7582 89.2122 91.3508 91.7568C96.9144 94.2881 102.689 96.238 107.086 97.5573C109.282 98.2159 111.126 98.7152 112.419 99.0491C113.065 99.216 113.573 99.3414 113.918 99.4248C114.09 99.4665 114.222 99.4977 114.31 99.5183C114.353 99.5285 114.386 99.536 114.407 99.541C114.418 99.5434 114.426 99.545 114.431 99.5462C114.434 99.5467 114.437 99.5475 114.437 99.5475C114.437 99.5475 114.438 99.5479 114.052 101.166C113.667 102.784 113.665 102.784 113.665 102.784L113.663 102.783C113.661 102.782 113.658 102.782 113.655 102.781C113.648 102.779 113.638 102.777 113.626 102.774C113.601 102.769 113.565 102.76 113.517 102.748C113.422 102.726 113.282 102.693 113.102 102.65C112.741 102.563 112.215 102.433 111.551 102.261C110.221 101.918 108.333 101.407 106.088 100.734C101.606 99.3889 95.6715 97.387 89.9161 94.7683C84.1899 92.1629 78.5002 88.8847 74.6235 84.9343C73.5933 83.8846 72.6795 82.7706 71.9233 81.5984C73.8549 85.6297 76.9391 89.9914 80.4002 94.1817C84.5044 99.1506 89.0424 103.766 92.5638 107.147C94.3222 108.836 95.8225 110.211 96.8813 111.163C97.4105 111.639 97.8295 112.009 98.1148 112.259C98.2575 112.384 98.3664 112.479 98.4395 112.542C98.476 112.574 98.5038 112.597 98.5218 112.613C98.5308 112.621 98.5375 112.627 98.5417 112.631C98.5438 112.632 98.5464 112.634 98.5464 112.634L98.5471 112.635C98.5443 112.638 98.4899 112.7 97.4277 113.885C96.3693 115.066 96.3106 115.13 96.307 115.133L96.305 115.132C96.3035 115.131 96.3011 115.128 96.2983 115.126C96.2929 115.121 96.2851 115.115 96.2751 115.106C96.2548 115.089 96.2249 115.063 96.1861 115.029C96.1083 114.962 95.994 114.862 95.8462 114.733C95.5506 114.474 95.1204 114.094 94.5795 113.608C93.4978 112.635 91.9705 111.234 90.1817 109.517C86.6083 106.086 81.971 101.373 77.7552 96.2686C74.4558 92.274 71.3549 87.9697 69.2398 83.8072C70.1927 88.2837 72.5148 93.2359 75.3392 97.9927C78.4091 103.163 81.994 107.975 84.8219 111.503C86.2337 113.264 87.4521 114.7 88.3154 115.693C88.7469 116.189 89.0897 116.575 89.3232 116.835C89.44 116.965 89.5291 117.064 89.5888 117.129C89.6185 117.162 89.6412 117.186 89.6559 117.202C89.663 117.21 89.6684 117.216 89.6718 117.219L89.6764 117.224C89.6764 117.224 89.6762 117.224 88.4143 118.337C87.1774 119.428 87.1516 119.449 87.1516 119.449L87.1502 119.447C87.1489 119.446 87.1466 119.444 87.1443 119.441C87.1396 119.436 87.1329 119.429 87.1244 119.42C87.1072 119.401 87.0824 119.374 87.05 119.338C86.9851 119.267 86.8901 119.162 86.7678 119.026C86.5232 118.754 86.1688 118.354 85.7248 117.844C84.837 116.822 83.59 115.353 82.1463 113.551C79.2633 109.954 75.5756 105.01 72.3987 99.6597C70.2279 96.0037 68.2582 92.0964 66.9612 88.2586C67.4089 90.6628 68.005 93.1489 68.6987 95.632C70.4164 101.781 72.677 107.775 74.5139 112.242C75.4312 114.472 76.2402 116.316 76.819 117.6C77.1084 118.242 77.3402 118.744 77.4989 119.084C77.5783 119.254 77.6392 119.383 77.6801 119.47C77.7006 119.513 77.7165 119.545 77.7266 119.567C77.7317 119.577 77.7355 119.585 77.7379 119.59C77.7391 119.592 77.7399 119.596 77.7399 119.596L77.7406 119.596C77.7385 119.597 77.683 119.624 76.2029 120.304C74.6648 121.01 74.664 121.009 74.664 121.009L74.6633 121.007C74.6625 121.005 74.6609 121.003 74.6593 120.999C74.6563 120.993 74.6517 120.984 74.646 120.972C74.6346 120.948 74.618 120.913 74.5963 120.867C74.5526 120.775 74.4886 120.639 74.4064 120.463C74.2419 120.11 74.0043 119.596 73.7086 118.94C73.1172 117.628 72.2929 115.75 71.3597 113.481C69.4955 108.947 67.1843 102.824 65.4196 96.5067C63.6639 90.2222 62.4074 83.6033 62.7526 78.1287C62.7693 77.865 62.7904 77.6024 62.8151 77.3416C62.7459 77.2932 62.6773 77.244 62.6092 77.1943C60.9552 81.6776 60.1283 87.5331 59.7989 93.5341C59.4497 99.8965 59.6659 106.277 59.9715 111.078C60.1241 113.476 60.2988 115.473 60.4349 116.869C60.5029 117.567 60.561 118.114 60.6022 118.485C60.6228 118.67 60.639 118.812 60.65 118.907C60.6555 118.954 60.6598 118.989 60.6626 119.012C60.664 119.024 60.6653 119.033 60.666 119.038C60.6663 119.041 60.6666 119.044 60.6666 119.044V119.045C60.6619 119.046 60.5752 119.056 58.9796 119.243C57.3705 119.432 57.2955 119.441 57.2919 119.441L57.2913 119.438C57.291 119.436 57.291 119.434 57.2906 119.43C57.2898 119.423 57.2882 119.413 57.2866 119.4C57.2835 119.373 57.2792 119.335 57.2733 119.284C57.2615 119.184 57.2442 119.035 57.2229 118.843C57.1802 118.458 57.1205 117.897 57.0509 117.184C56.9119 115.758 56.7342 113.724 56.5789 111.285C56.2687 106.412 56.0455 99.893 56.4043 93.3563C56.7612 86.8531 57.7003 80.1845 59.7916 75.0906C59.8585 74.9275 59.9262 74.7653 59.9961 74.6045C59.7031 74.2068 59.4368 73.7906 59.198 73.3587C55.9114 76.8225 52.8171 81.7833 50.105 87.0575C47.1743 92.7568 44.7546 98.6915 43.0649 103.213C42.2211 105.471 41.5614 107.37 41.1136 108.703C40.8898 109.369 40.7189 109.893 40.6044 110.25C40.5472 110.428 40.5042 110.564 40.4756 110.655C40.4613 110.701 40.4507 110.735 40.4437 110.757C40.4402 110.768 40.4374 110.777 40.4358 110.782C40.435 110.785 40.4338 110.788 40.4338 110.788V110.789C40.4338 110.789 40.4336 110.789 38.8065 110.309C37.2319 109.845 37.1807 109.83 37.1792 109.829L37.1799 109.827C37.1805 109.825 37.1815 109.822 37.1826 109.819C37.1847 109.812 37.1873 109.802 37.1912 109.79C37.1991 109.764 37.2111 109.727 37.2264 109.679C37.2569 109.582 37.3019 109.439 37.3612 109.255C37.4798 108.886 37.6555 108.347 37.8843 107.666C38.3419 106.305 39.013 104.371 39.8714 102.074C41.5862 97.4847 44.0568 91.4202 47.0676 85.565C50.0632 79.7397 53.6598 73.9894 57.6664 70.1298C57.6676 70.1286 57.6685 70.127 57.6697 70.1259C53.619 72.567 49.3488 76.3846 45.3401 80.5841C40.8812 85.2553 36.8455 90.2922 33.9181 94.1713C32.4562 96.1085 31.2744 97.7513 30.4597 98.9083C30.0525 99.4866 29.7371 99.9433 29.5243 100.254C29.4179 100.41 29.3377 100.529 29.2839 100.608C29.2571 100.648 29.2367 100.678 29.2235 100.697C29.2169 100.707 29.212 100.715 29.2089 100.719C29.2075 100.721 29.2056 100.724 29.2056 100.724L29.2049 100.725C29.2049 100.725 29.1929 100.718 27.7815 99.8174C26.3802 98.9235 26.3587 98.9083 26.3587 98.9083L26.3601 98.9063C26.3612 98.9047 26.3627 98.9022 26.3647 98.8992C26.3687 98.8933 26.3746 98.8849 26.382 98.8739C26.3969 98.8517 26.4191 98.8195 26.4477 98.7772C26.505 98.6925 26.5891 98.5677 26.6993 98.4067C26.9198 98.0847 27.2438 97.6163 27.66 97.0252C28.4922 95.8432 29.6949 94.17 31.1821 92.1993C34.1529 88.2628 38.2749 83.1158 42.8551 78.3175C45.4811 75.5664 48.2917 72.8942 51.1507 70.6236C48.2108 71.8555 45.23 73.3978 42.3385 75.0847C36.871 78.2746 31.8331 81.9165 28.154 84.7695C26.3169 86.194 24.8241 87.4177 23.7927 88.2833C23.2772 88.7159 22.8768 89.0586 22.6069 89.2923C22.472 89.4091 22.3695 89.4986 22.3015 89.5583C22.2677 89.5881 22.2424 89.6105 22.2259 89.6252C22.2177 89.6324 22.2118 89.638 22.2079 89.6414C22.2061 89.643 22.2039 89.6453 22.2039 89.6453L22.2026 89.6459C22.2008 89.644 22.1567 89.596 21.0587 88.4176C19.9318 87.2083 19.9148 87.1886 19.9148 87.1886L19.9167 87.1873C19.9182 87.186 19.9201 87.1837 19.9227 87.1814C19.9279 87.1768 19.9356 87.1705 19.9453 87.162C19.9646 87.1449 19.9928 87.1197 20.0296 87.0874C20.1033 87.0226 20.2119 86.9279 20.3529 86.8057C20.6351 86.5614 21.0481 86.2069 21.5779 85.7623C22.6374 84.8731 24.1642 83.6219 26.0407 82.1668C29.7888 79.2603 34.9554 75.5226 40.5964 72.2315C46.2149 68.9537 52.416 66.0521 58.2168 64.9152C58.3068 64.8976 58.397 64.8814 58.487 64.8646C58.8841 63.8892 59.4421 62.9611 60.1109 62.0997C55.126 61.4788 48.8032 62.0988 42.4534 63.2696C36.0117 64.4574 29.6869 66.183 24.9619 67.6166C22.6024 68.3324 20.6483 68.9734 19.286 69.4348C18.605 69.6654 18.0717 69.8511 17.7106 69.9786C17.5302 70.0422 17.3927 70.0916 17.3009 70.1246C17.2552 70.141 17.2206 70.1534 17.198 70.1616C17.1867 70.1656 17.1781 70.1687 17.1728 70.1706C17.1701 70.1716 17.1668 70.1732 17.1668 70.1732C17.1656 70.1703 17.1394 70.1043 16.5706 68.6178C15.9753 67.0619 15.9764 67.0611 15.9764 67.0611L15.9784 67.0605C15.9803 67.0598 15.983 67.0585 15.9864 67.0572C15.9931 67.0548 16.0029 67.0514 16.0156 67.0469C16.0411 67.0376 16.0789 67.0242 16.1278 67.0066C16.2255 66.9715 16.3692 66.9201 16.556 66.8541C16.93 66.7221 17.4769 66.5317 18.1726 66.2961C19.5641 65.8248 21.5539 65.1717 23.954 64.4435C28.7483 62.9889 35.2075 61.2248 41.8227 60.005C46.0267 59.2299 50.3538 58.663 54.3866 58.5522C51.1084 58.0992 47.5368 57.8875 43.922 57.8429C37.3659 57.762 30.8147 58.231 25.8907 58.7228C23.4317 58.9684 21.3854 59.2192 19.9559 59.4081C19.2415 59.5025 18.6815 59.5813 18.3014 59.6365C18.1116 59.664 17.9666 59.6855 17.8699 59.7001C17.8215 59.7074 17.7849 59.7133 17.761 59.7169C17.7491 59.7187 17.7401 59.7199 17.7345 59.7208C17.7318 59.7212 17.7285 59.7215 17.7285 59.7215L17.7272 59.7221C17.7272 59.7221 17.725 59.7069 17.4589 58.0817C17.204 56.5244 17.1914 56.4454 17.1914 56.4413L17.194 56.4406C17.196 56.4403 17.1986 56.4399 17.202 56.4394C17.2091 56.4382 17.2197 56.4369 17.2332 56.4348C17.2601 56.4307 17.2993 56.4244 17.3507 56.4166C17.4538 56.4011 17.6054 56.3783 17.8022 56.3498C18.1957 56.2927 18.7704 56.212 19.5005 56.1156C20.9605 55.9226 23.0438 55.6678 25.5448 55.418C30.5409 54.919 37.2324 54.4375 43.9651 54.5206C49.8248 54.5929 55.8308 55.0926 60.8027 56.4368C56.9479 54.5128 52.1926 52.9227 47.2681 51.6343C40.9369 49.9778 34.4701 48.8553 29.5741 48.1465C27.1292 47.7925 25.083 47.5425 23.65 47.3814C22.9337 47.3009 22.3711 47.2423 21.9888 47.2043C21.7977 47.1852 21.6514 47.1712 21.554 47.1621C21.5053 47.1575 21.4684 47.1545 21.4444 47.1524C21.4325 47.1513 21.4235 47.1503 21.4179 47.1498C21.4151 47.1495 21.4119 47.1491 21.4119 47.1491H21.4106C21.4106 47.1491 21.4144 47.1096 21.5639 45.4944C21.7122 43.893 21.7172 43.842 21.718 43.8404H21.7206C21.7226 43.8406 21.7257 43.8407 21.7292 43.841C21.7364 43.8417 21.7465 43.8431 21.7598 43.8443C21.7869 43.8468 21.8268 43.8505 21.8786 43.8553C21.9824 43.8651 22.1355 43.8797 22.3334 43.8994C22.7292 43.9389 23.3065 43.9982 24.0383 44.0805C25.502 44.245 27.5853 44.4998 30.072 44.8598C35.0397 45.579 41.6452 46.7237 48.1471 48.4248C52.4111 49.5405 56.6939 50.9115 60.4608 52.5888C58.0718 50.7728 55.4271 49.0562 52.7023 47.4684C47.2327 44.2812 41.5543 41.6754 37.2324 39.8633C35.0744 38.9585 33.2613 38.2541 31.9901 37.7771C31.3546 37.5387 30.8547 37.3573 30.5155 37.2359C30.3461 37.1753 30.2166 37.1298 30.1304 37.0997C30.0875 37.0846 30.0553 37.0732 30.0342 37.0659C30.0237 37.0623 30.0158 37.0592 30.0109 37.0575C30.0086 37.0567 30.0056 37.0562 30.0056 37.0562L30.0043 37.0555C30.0043 37.0555 30.0126 37.0336 30.5673 35.4884C31.0951 34.0181 31.1283 33.9268 31.131 33.9214L31.1336 33.922C31.1355 33.9227 31.1384 33.9235 31.1416 33.9246C31.1482 33.9269 31.1574 33.9302 31.1695 33.9343C31.1941 33.9429 31.2303 33.9556 31.277 33.972C31.3705 34.0047 31.5075 34.0526 31.6847 34.116C32.0392 34.2429 32.5554 34.431 33.2084 34.676C34.5142 35.166 36.3687 35.8861 38.5728 36.8102C42.9752 38.656 48.7997 41.3265 54.4424 44.6145C59.964 47.832 65.4214 51.7043 69.1807 56.0507C69.7517 55.8829 70.3268 55.7474 70.9009 55.6477C69.1167 51.098 65.6001 45.9902 61.5729 41.1144C57.4688 36.1455 52.9307 31.5296 49.4093 28.1488C47.6508 26.4605 46.1507 25.0849 45.0918 24.1328C44.5625 23.6568 44.1436 23.2868 43.8582 23.0368C43.7156 22.9118 43.606 22.8165 43.5329 22.7532C43.4965 22.7217 43.4693 22.698 43.4513 22.6825C43.4424 22.6748 43.4356 22.6693 43.4314 22.6656C43.4294 22.6639 43.4267 22.6617 43.4267 22.6617L43.4254 22.6604C43.4263 22.6593 43.459 22.6235 44.5454 21.4113C45.6226 20.2094 45.664 20.1635 45.6661 20.1622L45.6681 20.1635C45.6696 20.1648 45.672 20.167 45.6747 20.1693C45.6801 20.174 45.6879 20.1808 45.698 20.1894C45.7184 20.207 45.748 20.233 45.7869 20.2666C45.8648 20.334 45.9791 20.4332 46.1269 20.5625C46.4225 20.8215 46.8527 21.2013 47.3936 21.6877C48.4753 22.6604 50.0026 24.061 51.7914 25.7784C55.3648 29.2091 60.0015 33.9235 64.2172 39.0275C68.4114 44.1053 72.2853 49.6832 74.2205 54.8346C74.3113 55.0764 74.3973 55.3191 74.4801 55.5614C74.55 55.5732 74.6193 55.5868 74.6885 55.6003C74.0526 50.7565 72.1395 45.3599 69.747 40.1689C67.1402 34.5131 64.0203 29.2177 61.5443 25.3274C60.3081 23.3849 59.2363 21.7985 58.475 20.7001C58.0946 20.1511 57.7919 19.7243 57.5854 19.4361C57.4821 19.292 57.4032 19.1823 57.3504 19.1097C57.3239 19.0733 57.3036 19.0463 57.2906 19.0285C57.2842 19.0198 57.2797 19.0132 57.2767 19.0091C57.2753 19.0072 57.2733 19.0052 57.2733 19.0052L57.2727 19.0039C57.2741 19.0029 57.3183 18.9721 58.6516 18.0325C59.9491 17.1181 60.0257 17.065 60.0306 17.0624L60.0319 17.0637C60.0331 17.0653 60.0352 17.068 60.0372 17.0708C60.0413 17.0763 60.0471 17.0841 60.0545 17.0942C60.0696 17.1149 60.0915 17.1456 60.1202 17.185C60.1776 17.2639 60.2619 17.3796 60.3699 17.5302C60.5858 17.8317 60.8983 18.2729 61.2894 18.8371C62.0715 19.9656 63.1681 21.5883 64.431 23.5728C66.9535 27.5363 70.1567 32.9676 72.8468 38.8043C73.0104 39.1592 73.1716 39.5164 73.3315 39.875C73.312 39.8048 73.294 39.7343 73.2744 39.6641C71.5567 33.5153 69.2961 27.5214 67.4592 23.0543C66.5419 20.8236 65.7329 18.9798 65.154 17.6957C64.8647 17.0538 64.6329 16.5517 64.4742 16.2117C64.3949 16.042 64.3339 15.9126 64.2929 15.8262C64.2725 15.7831 64.2566 15.7502 64.2465 15.7289C64.2414 15.7184 64.2376 15.7105 64.2352 15.7056C64.234 15.7031 64.2325 15.7004 64.2325 15.7004V15.6991C64.237 15.6969 64.3176 15.6599 65.7701 14.9924C67.2953 14.2916 67.3091 14.2864 67.3091 14.2864L67.3098 14.2884ZM81.258 70.3205C80.2983 70.6542 79.3355 70.9061 78.3786 71.0564C79.2949 71.2895 80.2611 71.3974 81.2746 71.3899C81.2815 71.2841 81.2859 71.1754 81.2859 71.0635C81.2859 70.8228 81.2748 70.5748 81.258 70.3205ZM62.2361 70.6521C62.094 70.7547 61.9513 70.8606 61.8086 70.9707C61.8325 71.0288 61.8575 71.0865 61.8829 71.144C61.9977 70.9768 62.1163 70.8133 62.2361 70.6521ZM79.737 64.6427C79.7475 64.6351 79.7583 64.6276 79.7688 64.62C79.7669 64.6158 79.7647 64.6118 79.7629 64.6077C79.7542 64.6193 79.7456 64.631 79.737 64.6427ZM63.8919 62.9075C63.393 63.3961 62.9572 63.9008 62.5907 64.4123C62.6234 64.4115 62.6562 64.4111 62.6889 64.4104C63.9639 64.1285 65.2332 64.0158 66.4746 64.1151C65.7409 63.6335 64.8792 63.2325 63.8919 62.9075ZM71.8802 58.8591C71.7108 58.8822 71.54 58.9096 71.3683 58.9415C71.617 59.3248 71.8524 59.7123 72.0727 60.1043C72.0307 59.7019 71.9674 59.2867 71.8802 58.8591Z" fill="#2F741F"/>
</svg>
