<svg width="118" height="107" viewBox="0 0 118 107" fill="none" xmlns="http://www.w3.org/2000/svg">
<mask id="path-1-inside-1_269_40" fill="white">
<path fill-rule="evenodd" clip-rule="evenodd" d="M55.9306 0L61.1033 41.6357L61.7283 46.6667L63.5601 44.4434L92.763 9C94.3111 9.55918 95.7993 10.3182 97.2245 11.2448C97.7966 11.6165 98.3584 12.0153 98.9099 12.4391C105.899 17.8101 111.224 27.1819 114.451 36.3102C114.97 37.7786 115.435 39.2406 115.844 40.6787C117.257 45.6484 118 50.3319 118 54C118 60.1434 116.836 66.0426 114.697 71.5296C114.31 72.5202 113.892 73.4974 113.443 74.46C109.859 82.1476 104.316 88.9153 97.374 94.2594C96.0886 95.249 94.7553 96.1898 93.3775 97.0785C86.5141 101.506 78.5491 104.643 69.9229 106.093C68.1126 106.398 66.2731 106.628 64.4085 106.78C62.6274 106.926 60.8234 107 59 107C55.3167 107 51.7122 106.697 48.2158 106.117C47.7875 106.046 47.3609 105.97 46.936 105.891C45.7151 105.663 44.5082 105.401 43.3163 105.107C42.8839 105 42.4535 104.889 42.0252 104.774C37.1092 103.449 32.4628 101.565 28.1782 99.2021C27.4901 98.8226 26.8113 98.4307 26.1423 98.027C19.5882 94.0721 13.9657 88.9674 9.63284 83.0345C9.02561 82.2031 8.44372 81.3551 7.88813 80.4922C3.04275 72.9648 0.198833 64.2676 0.0100435 54.9876C0.0033617 54.6592 0 54.3301 0 54C0 53.2826 0.0161216 52.5651 0.0480941 51.8486C0.464633 42.5137 3.57345 33.3139 8.8222 25.3151C9.3106 24.571 9.81754 23.8369 10.3425 23.1143C16.7016 14.3614 25.7137 7.26023 36.5878 3.33659C37.1694 3.12663 37.7563 2.92611 38.3484 2.7347C43.7995 0.972311 49.6917 0 55.9306 0ZM52.4594 62.3506L52.922 64.0707L49.0842 63.4119L52.1917 62.1235L52.4594 62.3506ZM52.3776 62.0464L52.4594 62.3506L54.1731 63.805L53.8281 64.2262L52.922 64.0707L53.1775 65.0206L52.3882 65.9841L53.3351 65.6065L53.8496 67.5198L54.518 65.1348L55.3493 64.8033L55.8646 65.2406L53.8885 67.6645L55.9114 75.1858L57.9462 67.0073L55.8646 65.2406L56.34 64.6574L57.316 64.825L57.9626 66.9414L58.4411 65.0181L62.4438 65.7052L59.3761 63.1974L61.4171 62.3835L59.1917 62.0014L59.4931 60.7897L61.5786 58.2316L59.9629 58.9015L60.7366 55.7918L57.2776 60.0148L56.0868 60.5086L56.5578 60.8936L56.2353 61.2873L56.0075 60.5414L55.7786 60.6363L55.8652 60.3274L50.8021 56.1885L52.0351 60.7729L50.2367 60.4642L52.1917 62.1235L52.3776 62.0464ZM54.4495 61.1874L52.3776 62.0464L52.0351 60.7729L54.4495 61.1874ZM55.5703 61.3798L54.4495 61.1874L55.7786 60.6363L55.5703 61.3798ZM56.0869 61.4685L56.2353 61.2873L56.3019 61.5054L56.0869 61.4685ZM55.2638 62.4734L55.5703 61.3798L56.0869 61.4685L55.2638 62.4734ZM54.7528 64.297L54.1731 63.805L55.2638 62.4734L54.7528 64.297ZM54.8826 64.4072L54.7528 64.297L54.7293 64.3809L53.8281 64.2262L53.1775 65.0206L53.3351 65.6065L54.518 65.1348L54.7293 64.3809L54.8826 64.4072ZM55.9031 64.5824L54.8826 64.4072L55.3493 64.8033L55.9031 64.5824ZM56.6411 64.2881L56.34 64.6574L55.9031 64.5824L56.6411 64.2881ZM57.0128 63.8322L56.6411 64.2881L57.0965 64.1065L57.316 64.825L58.4411 65.0181L58.841 63.4108L59.3761 63.1974L58.9756 62.87L59.1917 62.0014L58.5895 61.8981L59.4931 60.7897L59.9629 58.9015L57.2776 60.0148L56.5578 60.8936L57.5731 61.7236L56.3019 61.5054L57.0128 63.8322ZM58.2684 62.292L58.9756 62.87L58.841 63.4108L57.0965 64.1065L57.0128 63.8322L58.2684 62.292ZM58.2684 62.292L57.5731 61.7236L58.5895 61.8981L58.2684 62.292Z"/>
<path fill-rule="evenodd" clip-rule="evenodd" d="M53.1775 65.0206L53.3351 65.6065L54.518 65.1348L53.8496 67.5198L53.8885 67.6645L55.8646 65.2406L57.9462 67.0073L55.9114 75.1858L64.4085 106.78C66.2731 106.628 68.1126 106.398 69.9229 106.093L57.9626 66.9414L57.316 64.825L56.34 64.6574L56.6411 64.2881L57.0965 64.1065L57.0128 63.8322L56.6411 64.2881L55.9031 64.5824L54.8826 64.4072L54.7528 64.297L55.2638 62.4734L56.0869 61.4685L56.3019 61.5054L56.2353 61.2873L56.0869 61.4685L55.5703 61.3798L55.7786 60.6363L56.0075 60.5414L38.3484 2.7347C37.7563 2.92611 37.1694 3.12663 36.5878 3.33659L50.8021 56.1885L55.8652 60.3274L55.7786 60.6363L54.4495 61.1874L52.0351 60.7729L52.3776 62.0464L54.4495 61.1874L55.5703 61.3798L55.2638 62.4734L54.1731 63.805L52.4594 62.3506L52.922 64.0707L53.8281 64.2262L53.1775 65.0206ZM54.7293 64.3809L54.518 65.1348L55.3493 64.8033L55.8646 65.2406L56.34 64.6574L55.9031 64.5824L55.3493 64.8033L54.8826 64.4072L54.7293 64.3809ZM54.7293 64.3809L53.8281 64.2262L54.1731 63.805L54.7528 64.297L54.7293 64.3809Z"/>
<path fill-rule="evenodd" clip-rule="evenodd" d="M59.9629 58.9015L59.4931 60.7897L58.5895 61.8981L57.5731 61.7236L56.5578 60.8936L57.2776 60.0148L59.9629 58.9015ZM56.2353 61.2873L56.0075 60.5414L55.7786 60.6363L55.8652 60.3274L61.1033 41.6357L61.7283 46.6667L63.5601 44.4434L60.7366 55.7918L57.2776 60.0148L56.0868 60.5086L56.5578 60.8936L56.2353 61.2873ZM56.3019 61.5054L56.2353 61.2873L56.0869 61.4685L55.5703 61.3798L55.2638 62.4734L56.0869 61.4685L56.3019 61.5054ZM57.0128 63.8322L56.3019 61.5054L57.5731 61.7236L58.2684 62.292L57.0128 63.8322ZM57.0965 64.1065L57.0128 63.8322L56.6411 64.2881L55.9031 64.5824L54.8826 64.4072L54.7528 64.297L54.7293 64.3809L54.8826 64.4072L55.3493 64.8033L54.518 65.1348L53.8496 67.5198L43.3163 105.107C44.5082 105.401 45.7151 105.663 46.936 105.891C47.3609 105.97 47.7875 106.046 48.2158 106.117L55.9114 75.1858L53.8885 67.6645L55.8646 65.2406L57.9462 67.0073L57.9626 66.9414L57.316 64.825L58.4411 65.0181L58.841 63.4108L57.0965 64.1065ZM56.34 64.6574L55.9031 64.5824L55.3493 64.8033L55.8646 65.2406L56.34 64.6574ZM56.34 64.6574L57.316 64.825L57.0965 64.1065L56.6411 64.2881L56.34 64.6574ZM58.2684 62.292L58.5895 61.8981L59.1917 62.0014L58.9756 62.87L58.2684 62.292Z"/>
<path fill-rule="evenodd" clip-rule="evenodd" d="M28.1782 99.2021L53.8885 67.6645L55.8646 65.2406L55.3493 64.8033L55.9031 64.5824L56.34 64.6574L56.6411 64.2881L55.9031 64.5824L54.8826 64.4072L54.7528 64.297L55.2638 62.4734L54.1731 63.805L54.7528 64.297L54.7293 64.3809L53.8281 64.2262L53.1775 65.0206L53.3351 65.6065L52.3882 65.9841L26.1423 98.027C26.8113 98.4307 27.4901 98.8226 28.1782 99.2021ZM54.518 65.1348L54.7293 64.3809L54.8826 64.4072L55.3493 64.8033L54.518 65.1348ZM54.518 65.1348L53.3351 65.6065L53.8496 67.5198L54.518 65.1348ZM58.5895 61.8981L59.4931 60.7897L59.9629 58.9015L61.5786 58.2316L98.9099 12.4391C98.3584 12.0153 97.7966 11.6165 97.2245 11.2448L60.7366 55.7918L59.9629 58.9015L57.2776 60.0148L56.5578 60.8936L57.5731 61.7236L56.3019 61.5054L56.2353 61.2873L56.0869 61.4685L56.3019 61.5054L57.0128 63.8322L58.2684 62.292L57.5731 61.7236L58.5895 61.8981Z"/>
<path fill-rule="evenodd" clip-rule="evenodd" d="M50.8021 56.1885L10.3425 23.1143C9.81754 23.8369 9.3106 24.571 8.8222 25.3151L50.2367 60.4642L52.0351 60.7729L52.3776 62.0464L52.1917 62.1235L52.4594 62.3506L52.3776 62.0464L54.4495 61.1874L55.5703 61.3798L55.2638 62.4734L54.1731 63.805L54.7528 64.297L55.2638 62.4734L56.0869 61.4685L56.3019 61.5054L57.0128 63.8322L56.6411 64.2881L55.9031 64.5824L54.8826 64.4072L55.3493 64.8033L55.9031 64.5824L56.34 64.6574L55.8646 65.2406L57.9462 67.0073L93.3775 97.0785C94.7553 96.1898 96.0886 95.249 97.374 94.2594L62.4438 65.7052L58.4411 65.0181L58.841 63.4108L59.3761 63.1974L58.9756 62.87L58.841 63.4108L57.0965 64.1065L57.0128 63.8322L58.2684 62.292L57.5731 61.7236L56.3019 61.5054L56.2353 61.2873L56.5578 60.8936L56.0868 60.5086L55.8652 60.3274L55.7786 60.6363L54.4495 61.1874L52.0351 60.7729L50.8021 56.1885ZM55.7786 60.6363L56.0075 60.5414L56.2353 61.2873L56.0869 61.4685L55.5703 61.3798L55.7786 60.6363ZM57.316 64.825L56.34 64.6574L56.6411 64.2881L57.0965 64.1065L57.316 64.825ZM57.316 64.825L58.4411 65.0181L57.9626 66.9414L57.316 64.825Z"/>
<path fill-rule="evenodd" clip-rule="evenodd" d="M49.0842 63.4119L7.88813 80.4922C8.44372 81.3551 9.02561 82.2031 9.63284 83.0345L52.3882 65.9841L53.1775 65.0206L53.3351 65.6065L54.518 65.1348L54.7293 64.3809L54.8826 64.4072L55.3493 64.8033L55.9031 64.5824L54.8826 64.4072L54.7528 64.297L55.2638 62.4734L56.0869 61.4685L56.3019 61.5054L57.0128 63.8322L56.6411 64.2881L57.0965 64.1065L57.0128 63.8322L58.2684 62.292L58.9756 62.87L58.841 63.4108L59.3761 63.1974L58.9756 62.87L59.1917 62.0014L61.4171 62.3835L115.844 40.6787C115.435 39.2406 114.97 37.7786 114.451 36.3102L61.5786 58.2316L59.4931 60.7897L59.9629 58.9015L57.2776 60.0148L56.5578 60.8936L56.0868 60.5086L56.0075 60.5414L56.2353 61.2873L56.0869 61.4685L55.5703 61.3798L55.7786 60.6363L54.4495 61.1874L55.5703 61.3798L55.2638 62.4734L54.1731 63.805L52.4594 62.3506L52.3776 62.0464L52.1917 62.1235L52.4594 62.3506L52.922 64.0707L49.0842 63.4119ZM53.8281 64.2262L54.1731 63.805L54.7528 64.297L54.7293 64.3809L53.8281 64.2262ZM53.8281 64.2262L52.922 64.0707L53.1775 65.0206L53.8281 64.2262ZM57.5731 61.7236L56.3019 61.5054L56.2353 61.2873L56.5578 60.8936L57.5731 61.7236ZM58.5895 61.8981L58.2684 62.292L57.5731 61.7236L58.5895 61.8981ZM58.5895 61.8981L59.4931 60.7897L59.1917 62.0014L58.5895 61.8981Z"/>
<path fill-rule="evenodd" clip-rule="evenodd" d="M55.5703 61.3798L56.0869 61.4685L55.2638 62.4734L55.5703 61.3798ZM54.7528 64.297L55.2638 62.4734L54.1731 63.805L52.4594 62.3506L52.3776 62.0464L54.4495 61.1874L52.0351 60.7729L52.3776 62.0464L52.1917 62.1235L50.2367 60.4642L0.0480941 51.8486C0.0161216 52.5651 0 53.2826 0 54C0 54.3301 0.0033617 54.6592 0.0100435 54.9876L49.0842 63.4119L52.1917 62.1235L52.4594 62.3506L52.922 64.0707L53.8281 64.2262L54.1731 63.805L54.7528 64.297ZM54.7528 64.297L54.8826 64.4072L54.7293 64.3809L54.7528 64.297ZM57.0128 63.8322L56.3019 61.5054L57.5731 61.7236L58.2684 62.292L57.0128 63.8322ZM57.0965 64.1065L57.0128 63.8322L56.6411 64.2881L55.9031 64.5824L56.34 64.6574L56.6411 64.2881L57.0965 64.1065ZM58.841 63.4108L57.0965 64.1065L57.316 64.825L58.4411 65.0181L58.841 63.4108ZM58.9756 62.87L58.841 63.4108L59.3761 63.1974L62.4438 65.7052L113.443 74.46C113.892 73.4974 114.31 72.5202 114.697 71.5296L61.4171 62.3835L59.3761 63.1974L58.9756 62.87ZM58.9756 62.87L59.1917 62.0014L58.5895 61.8981L58.2684 62.292L58.9756 62.87Z"/>
<path fill-rule="evenodd" clip-rule="evenodd" d="M52.4594 62.3506L52.922 64.0707L49.0842 63.4119L52.1917 62.1235L52.4594 62.3506Z"/>
<path fill-rule="evenodd" clip-rule="evenodd" d="M52.4594 62.3506L52.3776 62.0464L54.4495 61.1874L55.5703 61.3798L55.2638 62.4734L54.1731 63.805L52.4594 62.3506Z"/>
<path fill-rule="evenodd" clip-rule="evenodd" d="M52.0351 60.7729L52.3776 62.0464L52.1917 62.1235L50.2367 60.4642L52.0351 60.7729Z"/>
<path fill-rule="evenodd" clip-rule="evenodd" d="M52.0351 60.7729L50.8021 56.1885L55.8652 60.3274L55.7786 60.6363L54.4495 61.1874L52.0351 60.7729Z"/>
<path fill-rule="evenodd" clip-rule="evenodd" d="M53.1775 65.0206L52.922 64.0707L53.8281 64.2262L53.1775 65.0206Z"/>
<path fill-rule="evenodd" clip-rule="evenodd" d="M53.1775 65.0206L53.3351 65.6065L52.3882 65.9841L53.1775 65.0206Z"/>
<path fill-rule="evenodd" clip-rule="evenodd" d="M53.8496 67.5198L53.3351 65.6065L54.518 65.1348L53.8496 67.5198Z"/>
<path fill-rule="evenodd" clip-rule="evenodd" d="M54.7528 64.297L54.7293 64.3809L53.8281 64.2262L54.1731 63.805L54.7528 64.297Z"/>
<path fill-rule="evenodd" clip-rule="evenodd" d="M54.518 65.1348L54.7293 64.3809L54.8826 64.4072L55.3493 64.8033L54.518 65.1348Z"/>
<path fill-rule="evenodd" clip-rule="evenodd" d="M56.34 64.6574L55.8646 65.2406L55.3493 64.8033L55.9031 64.5824L56.34 64.6574Z"/>
<path fill-rule="evenodd" clip-rule="evenodd" d="M56.3019 61.5054L57.0128 63.8322L56.6411 64.2881L55.9031 64.5824L54.8826 64.4072L54.7528 64.297L55.2638 62.4734L56.0869 61.4685L56.3019 61.5054Z"/>
<path fill-rule="evenodd" clip-rule="evenodd" d="M56.0075 60.5414L56.2353 61.2873L56.0869 61.4685L55.5703 61.3798L55.7786 60.6363L56.0075 60.5414Z"/>
<path fill-rule="evenodd" clip-rule="evenodd" d="M57.2776 60.0148L56.5578 60.8936L56.0868 60.5086L57.2776 60.0148Z"/>
<path fill-rule="evenodd" clip-rule="evenodd" d="M56.3019 61.5054L56.2353 61.2873L56.5578 60.8936L57.5731 61.7236L56.3019 61.5054Z"/>
<path fill-rule="evenodd" clip-rule="evenodd" d="M60.7366 55.7918L59.9629 58.9015L57.2776 60.0148L60.7366 55.7918Z"/>
<path fill-rule="evenodd" clip-rule="evenodd" d="M59.4931 60.7897L59.9629 58.9015L61.5786 58.2316L59.4931 60.7897Z"/>
<path fill-rule="evenodd" clip-rule="evenodd" d="M58.5895 61.8981L58.2684 62.292L57.5731 61.7236L58.5895 61.8981Z"/>
<path fill-rule="evenodd" clip-rule="evenodd" d="M59.4931 60.7897L59.1917 62.0014L58.5895 61.8981L59.4931 60.7897Z"/>
<path fill-rule="evenodd" clip-rule="evenodd" d="M58.9756 62.87L59.1917 62.0014L61.4171 62.3835L59.3761 63.1974L58.9756 62.87Z"/>
<path fill-rule="evenodd" clip-rule="evenodd" d="M57.0965 64.1065L57.0128 63.8322L58.2684 62.292L58.9756 62.87L58.841 63.4108L57.0965 64.1065Z"/>
<path fill-rule="evenodd" clip-rule="evenodd" d="M58.4411 65.0181L58.841 63.4108L59.3761 63.1974L62.4438 65.7052L58.4411 65.0181Z"/>
<path fill-rule="evenodd" clip-rule="evenodd" d="M57.9626 66.9414L57.316 64.825L58.4411 65.0181L57.9626 66.9414Z"/>
<path fill-rule="evenodd" clip-rule="evenodd" d="M57.0965 64.1065L57.316 64.825L56.34 64.6574L56.6411 64.2881L57.0965 64.1065Z"/>
<path fill-rule="evenodd" clip-rule="evenodd" d="M55.9114 75.1858L53.8885 67.6645L55.8646 65.2406L57.9462 67.0073L55.9114 75.1858Z"/>
</mask>
<path fill-rule="evenodd" clip-rule="evenodd" d="M55.9306 0L61.1033 41.6357L61.7283 46.6667L63.5601 44.4434L92.763 9C94.3111 9.55918 95.7993 10.3182 97.2245 11.2448C97.7966 11.6165 98.3584 12.0153 98.9099 12.4391C105.899 17.8101 111.224 27.1819 114.451 36.3102C114.97 37.7786 115.435 39.2406 115.844 40.6787C117.257 45.6484 118 50.3319 118 54C118 60.1434 116.836 66.0426 114.697 71.5296C114.31 72.5202 113.892 73.4974 113.443 74.46C109.859 82.1476 104.316 88.9153 97.374 94.2594C96.0886 95.249 94.7553 96.1898 93.3775 97.0785C86.5141 101.506 78.5491 104.643 69.9229 106.093C68.1126 106.398 66.2731 106.628 64.4085 106.78C62.6274 106.926 60.8234 107 59 107C55.3167 107 51.7122 106.697 48.2158 106.117C47.7875 106.046 47.3609 105.97 46.936 105.891C45.7151 105.663 44.5082 105.401 43.3163 105.107C42.8839 105 42.4535 104.889 42.0252 104.774C37.1092 103.449 32.4628 101.565 28.1782 99.2021C27.4901 98.8226 26.8113 98.4307 26.1423 98.027C19.5882 94.0721 13.9657 88.9674 9.63284 83.0345C9.02561 82.2031 8.44372 81.3551 7.88813 80.4922C3.04275 72.9648 0.198833 64.2676 0.0100435 54.9876C0.0033617 54.6592 0 54.3301 0 54C0 53.2826 0.0161216 52.5651 0.0480941 51.8486C0.464633 42.5137 3.57345 33.3139 8.8222 25.3151C9.3106 24.571 9.81754 23.8369 10.3425 23.1143C16.7016 14.3614 25.7137 7.26023 36.5878 3.33659C37.1694 3.12663 37.7563 2.92611 38.3484 2.7347C43.7995 0.972311 49.6917 0 55.9306 0ZM52.4594 62.3506L52.922 64.0707L49.0842 63.4119L52.1917 62.1235L52.4594 62.3506ZM52.3776 62.0464L52.4594 62.3506L54.1731 63.805L53.8281 64.2262L52.922 64.0707L53.1775 65.0206L52.3882 65.9841L53.3351 65.6065L53.8496 67.5198L54.518 65.1348L55.3493 64.8033L55.8646 65.2406L53.8885 67.6645L55.9114 75.1858L57.9462 67.0073L55.8646 65.2406L56.34 64.6574L57.316 64.825L57.9626 66.9414L58.4411 65.0181L62.4438 65.7052L59.3761 63.1974L61.4171 62.3835L59.1917 62.0014L59.4931 60.7897L61.5786 58.2316L59.9629 58.9015L60.7366 55.7918L57.2776 60.0148L56.0868 60.5086L56.5578 60.8936L56.2353 61.2873L56.0075 60.5414L55.7786 60.6363L55.8652 60.3274L50.8021 56.1885L52.0351 60.7729L50.2367 60.4642L52.1917 62.1235L52.3776 62.0464ZM54.4495 61.1874L52.3776 62.0464L52.0351 60.7729L54.4495 61.1874ZM55.5703 61.3798L54.4495 61.1874L55.7786 60.6363L55.5703 61.3798ZM56.0869 61.4685L56.2353 61.2873L56.3019 61.5054L56.0869 61.4685ZM55.2638 62.4734L55.5703 61.3798L56.0869 61.4685L55.2638 62.4734ZM54.7528 64.297L54.1731 63.805L55.2638 62.4734L54.7528 64.297ZM54.8826 64.4072L54.7528 64.297L54.7293 64.3809L53.8281 64.2262L53.1775 65.0206L53.3351 65.6065L54.518 65.1348L54.7293 64.3809L54.8826 64.4072ZM55.9031 64.5824L54.8826 64.4072L55.3493 64.8033L55.9031 64.5824ZM56.6411 64.2881L56.34 64.6574L55.9031 64.5824L56.6411 64.2881ZM57.0128 63.8322L56.6411 64.2881L57.0965 64.1065L57.316 64.825L58.4411 65.0181L58.841 63.4108L59.3761 63.1974L58.9756 62.87L59.1917 62.0014L58.5895 61.8981L59.4931 60.7897L59.9629 58.9015L57.2776 60.0148L56.5578 60.8936L57.5731 61.7236L56.3019 61.5054L57.0128 63.8322ZM58.2684 62.292L58.9756 62.87L58.841 63.4108L57.0965 64.1065L57.0128 63.8322L58.2684 62.292ZM58.2684 62.292L57.5731 61.7236L58.5895 61.8981L58.2684 62.292Z" fill="#2F741F"/>
<path fill-rule="evenodd" clip-rule="evenodd" d="M53.1775 65.0206L53.3351 65.6065L54.518 65.1348L53.8496 67.5198L53.8885 67.6645L55.8646 65.2406L57.9462 67.0073L55.9114 75.1858L64.4085 106.78C66.2731 106.628 68.1126 106.398 69.9229 106.093L57.9626 66.9414L57.316 64.825L56.34 64.6574L56.6411 64.2881L57.0965 64.1065L57.0128 63.8322L56.6411 64.2881L55.9031 64.5824L54.8826 64.4072L54.7528 64.297L55.2638 62.4734L56.0869 61.4685L56.3019 61.5054L56.2353 61.2873L56.0869 61.4685L55.5703 61.3798L55.7786 60.6363L56.0075 60.5414L38.3484 2.7347C37.7563 2.92611 37.1694 3.12663 36.5878 3.33659L50.8021 56.1885L55.8652 60.3274L55.7786 60.6363L54.4495 61.1874L52.0351 60.7729L52.3776 62.0464L54.4495 61.1874L55.5703 61.3798L55.2638 62.4734L54.1731 63.805L52.4594 62.3506L52.922 64.0707L53.8281 64.2262L53.1775 65.0206ZM54.7293 64.3809L54.518 65.1348L55.3493 64.8033L55.8646 65.2406L56.34 64.6574L55.9031 64.5824L55.3493 64.8033L54.8826 64.4072L54.7293 64.3809ZM54.7293 64.3809L53.8281 64.2262L54.1731 63.805L54.7528 64.297L54.7293 64.3809Z" fill="#54A642"/>
<path fill-rule="evenodd" clip-rule="evenodd" d="M59.9629 58.9015L59.4931 60.7897L58.5895 61.8981L57.5731 61.7236L56.5578 60.8936L57.2776 60.0148L59.9629 58.9015ZM56.2353 61.2873L56.0075 60.5414L55.7786 60.6363L55.8652 60.3274L61.1033 41.6357L61.7283 46.6667L63.5601 44.4434L60.7366 55.7918L57.2776 60.0148L56.0868 60.5086L56.5578 60.8936L56.2353 61.2873ZM56.3019 61.5054L56.2353 61.2873L56.0869 61.4685L55.5703 61.3798L55.2638 62.4734L56.0869 61.4685L56.3019 61.5054ZM57.0128 63.8322L56.3019 61.5054L57.5731 61.7236L58.2684 62.292L57.0128 63.8322ZM57.0965 64.1065L57.0128 63.8322L56.6411 64.2881L55.9031 64.5824L54.8826 64.4072L54.7528 64.297L54.7293 64.3809L54.8826 64.4072L55.3493 64.8033L54.518 65.1348L53.8496 67.5198L43.3163 105.107C44.5082 105.401 45.7151 105.663 46.936 105.891C47.3609 105.97 47.7875 106.046 48.2158 106.117L55.9114 75.1858L53.8885 67.6645L55.8646 65.2406L57.9462 67.0073L57.9626 66.9414L57.316 64.825L58.4411 65.0181L58.841 63.4108L57.0965 64.1065ZM56.34 64.6574L55.9031 64.5824L55.3493 64.8033L55.8646 65.2406L56.34 64.6574ZM56.34 64.6574L57.316 64.825L57.0965 64.1065L56.6411 64.2881L56.34 64.6574ZM58.2684 62.292L58.5895 61.8981L59.1917 62.0014L58.9756 62.87L58.2684 62.292Z" fill="#54A642"/>
<path fill-rule="evenodd" clip-rule="evenodd" d="M28.1782 99.2021L53.8885 67.6645L55.8646 65.2406L55.3493 64.8033L55.9031 64.5824L56.34 64.6574L56.6411 64.2881L55.9031 64.5824L54.8826 64.4072L54.7528 64.297L55.2638 62.4734L54.1731 63.805L54.7528 64.297L54.7293 64.3809L53.8281 64.2262L53.1775 65.0206L53.3351 65.6065L52.3882 65.9841L26.1423 98.027C26.8113 98.4307 27.4901 98.8226 28.1782 99.2021ZM54.518 65.1348L54.7293 64.3809L54.8826 64.4072L55.3493 64.8033L54.518 65.1348ZM54.518 65.1348L53.3351 65.6065L53.8496 67.5198L54.518 65.1348ZM58.5895 61.8981L59.4931 60.7897L59.9629 58.9015L61.5786 58.2316L98.9099 12.4391C98.3584 12.0153 97.7966 11.6165 97.2245 11.2448L60.7366 55.7918L59.9629 58.9015L57.2776 60.0148L56.5578 60.8936L57.5731 61.7236L56.3019 61.5054L56.2353 61.2873L56.0869 61.4685L56.3019 61.5054L57.0128 63.8322L58.2684 62.292L57.5731 61.7236L58.5895 61.8981Z" fill="#54A642"/>
<path fill-rule="evenodd" clip-rule="evenodd" d="M50.8021 56.1885L10.3425 23.1143C9.81754 23.8369 9.3106 24.571 8.8222 25.3151L50.2367 60.4642L52.0351 60.7729L52.3776 62.0464L52.1917 62.1235L52.4594 62.3506L52.3776 62.0464L54.4495 61.1874L55.5703 61.3798L55.2638 62.4734L54.1731 63.805L54.7528 64.297L55.2638 62.4734L56.0869 61.4685L56.3019 61.5054L57.0128 63.8322L56.6411 64.2881L55.9031 64.5824L54.8826 64.4072L55.3493 64.8033L55.9031 64.5824L56.34 64.6574L55.8646 65.2406L57.9462 67.0073L93.3775 97.0785C94.7553 96.1898 96.0886 95.249 97.374 94.2594L62.4438 65.7052L58.4411 65.0181L58.841 63.4108L59.3761 63.1974L58.9756 62.87L58.841 63.4108L57.0965 64.1065L57.0128 63.8322L58.2684 62.292L57.5731 61.7236L56.3019 61.5054L56.2353 61.2873L56.5578 60.8936L56.0868 60.5086L55.8652 60.3274L55.7786 60.6363L54.4495 61.1874L52.0351 60.7729L50.8021 56.1885ZM55.7786 60.6363L56.0075 60.5414L56.2353 61.2873L56.0869 61.4685L55.5703 61.3798L55.7786 60.6363ZM57.316 64.825L56.34 64.6574L56.6411 64.2881L57.0965 64.1065L57.316 64.825ZM57.316 64.825L58.4411 65.0181L57.9626 66.9414L57.316 64.825Z" fill="#54A642"/>
<path fill-rule="evenodd" clip-rule="evenodd" d="M49.0842 63.4119L7.88813 80.4922C8.44372 81.3551 9.02561 82.2031 9.63284 83.0345L52.3882 65.9841L53.1775 65.0206L53.3351 65.6065L54.518 65.1348L54.7293 64.3809L54.8826 64.4072L55.3493 64.8033L55.9031 64.5824L54.8826 64.4072L54.7528 64.297L55.2638 62.4734L56.0869 61.4685L56.3019 61.5054L57.0128 63.8322L56.6411 64.2881L57.0965 64.1065L57.0128 63.8322L58.2684 62.292L58.9756 62.87L58.841 63.4108L59.3761 63.1974L58.9756 62.87L59.1917 62.0014L61.4171 62.3835L115.844 40.6787C115.435 39.2406 114.97 37.7786 114.451 36.3102L61.5786 58.2316L59.4931 60.7897L59.9629 58.9015L57.2776 60.0148L56.5578 60.8936L56.0868 60.5086L56.0075 60.5414L56.2353 61.2873L56.0869 61.4685L55.5703 61.3798L55.7786 60.6363L54.4495 61.1874L55.5703 61.3798L55.2638 62.4734L54.1731 63.805L52.4594 62.3506L52.3776 62.0464L52.1917 62.1235L52.4594 62.3506L52.922 64.0707L49.0842 63.4119ZM53.8281 64.2262L54.1731 63.805L54.7528 64.297L54.7293 64.3809L53.8281 64.2262ZM53.8281 64.2262L52.922 64.0707L53.1775 65.0206L53.8281 64.2262ZM57.5731 61.7236L56.3019 61.5054L56.2353 61.2873L56.5578 60.8936L57.5731 61.7236ZM58.5895 61.8981L58.2684 62.292L57.5731 61.7236L58.5895 61.8981ZM58.5895 61.8981L59.4931 60.7897L59.1917 62.0014L58.5895 61.8981Z" fill="#54A642"/>
<path fill-rule="evenodd" clip-rule="evenodd" d="M55.5703 61.3798L56.0869 61.4685L55.2638 62.4734L55.5703 61.3798ZM54.7528 64.297L55.2638 62.4734L54.1731 63.805L52.4594 62.3506L52.3776 62.0464L54.4495 61.1874L52.0351 60.7729L52.3776 62.0464L52.1917 62.1235L50.2367 60.4642L0.0480941 51.8486C0.0161216 52.5651 0 53.2826 0 54C0 54.3301 0.0033617 54.6592 0.0100435 54.9876L49.0842 63.4119L52.1917 62.1235L52.4594 62.3506L52.922 64.0707L53.8281 64.2262L54.1731 63.805L54.7528 64.297ZM54.7528 64.297L54.8826 64.4072L54.7293 64.3809L54.7528 64.297ZM57.0128 63.8322L56.3019 61.5054L57.5731 61.7236L58.2684 62.292L57.0128 63.8322ZM57.0965 64.1065L57.0128 63.8322L56.6411 64.2881L55.9031 64.5824L56.34 64.6574L56.6411 64.2881L57.0965 64.1065ZM58.841 63.4108L57.0965 64.1065L57.316 64.825L58.4411 65.0181L58.841 63.4108ZM58.9756 62.87L58.841 63.4108L59.3761 63.1974L62.4438 65.7052L113.443 74.46C113.892 73.4974 114.31 72.5202 114.697 71.5296L61.4171 62.3835L59.3761 63.1974L58.9756 62.87ZM58.9756 62.87L59.1917 62.0014L58.5895 61.8981L58.2684 62.292L58.9756 62.87Z" fill="#54A642"/>
<path fill-rule="evenodd" clip-rule="evenodd" d="M52.4594 62.3506L52.922 64.0707L49.0842 63.4119L52.1917 62.1235L52.4594 62.3506Z" fill="#54A642"/>
<path fill-rule="evenodd" clip-rule="evenodd" d="M52.4594 62.3506L52.3776 62.0464L54.4495 61.1874L55.5703 61.3798L55.2638 62.4734L54.1731 63.805L52.4594 62.3506Z" fill="#54A642"/>
<path fill-rule="evenodd" clip-rule="evenodd" d="M52.0351 60.7729L52.3776 62.0464L52.1917 62.1235L50.2367 60.4642L52.0351 60.7729Z" fill="#54A642"/>
<path fill-rule="evenodd" clip-rule="evenodd" d="M52.0351 60.7729L50.8021 56.1885L55.8652 60.3274L55.7786 60.6363L54.4495 61.1874L52.0351 60.7729Z" fill="#54A642"/>
<path fill-rule="evenodd" clip-rule="evenodd" d="M53.1775 65.0206L52.922 64.0707L53.8281 64.2262L53.1775 65.0206Z" fill="#54A642"/>
<path fill-rule="evenodd" clip-rule="evenodd" d="M53.1775 65.0206L53.3351 65.6065L52.3882 65.9841L53.1775 65.0206Z" fill="#54A642"/>
<path fill-rule="evenodd" clip-rule="evenodd" d="M53.8496 67.5198L53.3351 65.6065L54.518 65.1348L53.8496 67.5198Z" fill="#54A642"/>
<path fill-rule="evenodd" clip-rule="evenodd" d="M54.7528 64.297L54.7293 64.3809L53.8281 64.2262L54.1731 63.805L54.7528 64.297Z" fill="#54A642"/>
<path fill-rule="evenodd" clip-rule="evenodd" d="M54.518 65.1348L54.7293 64.3809L54.8826 64.4072L55.3493 64.8033L54.518 65.1348Z" fill="#54A642"/>
<path fill-rule="evenodd" clip-rule="evenodd" d="M56.34 64.6574L55.8646 65.2406L55.3493 64.8033L55.9031 64.5824L56.34 64.6574Z" fill="#54A642"/>
<path fill-rule="evenodd" clip-rule="evenodd" d="M56.3019 61.5054L57.0128 63.8322L56.6411 64.2881L55.9031 64.5824L54.8826 64.4072L54.7528 64.297L55.2638 62.4734L56.0869 61.4685L56.3019 61.5054Z" fill="#54A642"/>
<path fill-rule="evenodd" clip-rule="evenodd" d="M56.0075 60.5414L56.2353 61.2873L56.0869 61.4685L55.5703 61.3798L55.7786 60.6363L56.0075 60.5414Z" fill="#54A642"/>
<path fill-rule="evenodd" clip-rule="evenodd" d="M57.2776 60.0148L56.5578 60.8936L56.0868 60.5086L57.2776 60.0148Z" fill="#54A642"/>
<path fill-rule="evenodd" clip-rule="evenodd" d="M56.3019 61.5054L56.2353 61.2873L56.5578 60.8936L57.5731 61.7236L56.3019 61.5054Z" fill="#54A642"/>
<path fill-rule="evenodd" clip-rule="evenodd" d="M60.7366 55.7918L59.9629 58.9015L57.2776 60.0148L60.7366 55.7918Z" fill="#54A642"/>
<path fill-rule="evenodd" clip-rule="evenodd" d="M59.4931 60.7897L59.9629 58.9015L61.5786 58.2316L59.4931 60.7897Z" fill="#54A642"/>
<path fill-rule="evenodd" clip-rule="evenodd" d="M58.5895 61.8981L58.2684 62.292L57.5731 61.7236L58.5895 61.8981Z" fill="#54A642"/>
<path fill-rule="evenodd" clip-rule="evenodd" d="M59.4931 60.7897L59.1917 62.0014L58.5895 61.8981L59.4931 60.7897Z" fill="#54A642"/>
<path fill-rule="evenodd" clip-rule="evenodd" d="M58.9756 62.87L59.1917 62.0014L61.4171 62.3835L59.3761 63.1974L58.9756 62.87Z" fill="#54A642"/>
<path fill-rule="evenodd" clip-rule="evenodd" d="M57.0965 64.1065L57.0128 63.8322L58.2684 62.292L58.9756 62.87L58.841 63.4108L57.0965 64.1065Z" fill="#54A642"/>
<path fill-rule="evenodd" clip-rule="evenodd" d="M58.4411 65.0181L58.841 63.4108L59.3761 63.1974L62.4438 65.7052L58.4411 65.0181Z" fill="#54A642"/>
<path fill-rule="evenodd" clip-rule="evenodd" d="M57.9626 66.9414L57.316 64.825L58.4411 65.0181L57.9626 66.9414Z" fill="#54A642"/>
<path fill-rule="evenodd" clip-rule="evenodd" d="M57.0965 64.1065L57.316 64.825L56.34 64.6574L56.6411 64.2881L57.0965 64.1065Z" fill="#54A642"/>
<path fill-rule="evenodd" clip-rule="evenodd" d="M55.9114 75.1858L53.8885 67.6645L55.8646 65.2406L57.9462 67.0073L55.9114 75.1858Z" fill="#54A642"/>
<path d="M61.7283 46.6667L61.2321 46.7283L61.3754 47.8813L62.1142 46.9846L61.7283 46.6667ZM46.936 105.891L47.0278 105.399L47.0277 105.399L46.936 105.891ZM49.0842 63.4119L48.8927 62.95L47.2957 63.6122L48.9996 63.9047L49.0842 63.4119ZM52.3882 65.9841L52.0014 65.6673L52.5735 66.4485L52.3882 65.9841ZM53.8496 67.5198L53.3668 67.6497L53.8397 69.4081L54.3311 67.6548L53.8496 67.5198ZM53.8885 67.6645L53.501 67.3486L53.3392 67.5471L53.4057 67.7944L53.8885 67.6645ZM55.9114 75.1858L55.4285 75.3157L55.9302 77.181L56.3966 75.3066L55.9114 75.1858ZM57.9462 67.0073L58.4314 67.1281L58.5063 66.8269L58.2697 66.6261L57.9462 67.0073ZM57.9626 66.9414L57.4844 67.0875L58.0119 68.8142L58.4478 67.0622L57.9626 66.9414ZM62.4438 65.7052L62.3592 66.198L64.2294 66.5191L62.7603 65.3181L62.4438 65.7052ZM61.4171 62.3835L61.6023 62.8479L63.2501 62.1908L61.5017 61.8907L61.4171 62.3835ZM61.5786 58.2316L61.9661 58.5475L61.3871 57.7697L61.5786 58.2316ZM60.7366 55.7918L61.2218 55.9125L60.3498 55.475L60.7366 55.7918ZM56.0868 60.5086L55.8953 60.0467L55.1233 60.3667L55.7703 60.8957L56.0868 60.5086ZM56.0075 60.5414L56.4857 60.3954L56.3247 59.8686L55.816 60.0796L56.0075 60.5414ZM55.8652 60.3274L56.3467 60.4623L56.4349 60.1474L56.1817 59.9403L55.8652 60.3274ZM50.8021 56.1885L51.1186 55.8014L49.9158 54.8182L50.3193 56.3184L50.8021 56.1885ZM50.2367 60.4642L50.3213 59.9714L48.5188 59.662L49.9132 60.8454L50.2367 60.4642ZM61.1033 41.6357L60.6071 41.6974L61.2321 46.7283L61.7283 46.6667L62.2245 46.605L61.5995 41.5741L61.1033 41.6357ZM61.7283 46.6667L62.1142 46.9846L63.946 44.7613L63.5601 44.4434L63.1742 44.1254L61.3424 46.3487L61.7283 46.6667ZM97.2245 11.2448L96.9521 11.664C97.5126 12.0283 98.0637 12.4194 98.6052 12.8356L98.9099 12.4391L99.2146 12.0427C98.6531 11.6112 98.0806 11.2048 97.497 10.8255L97.2245 11.2448ZM114.451 36.3102L113.979 36.4769C114.495 37.9355 114.957 39.3874 115.363 40.8154L115.844 40.6787L116.325 40.542C115.913 39.0937 115.445 37.6218 114.922 36.1436L114.451 36.3102ZM114.697 71.5296L114.231 71.348C113.848 72.3284 113.434 73.2958 112.99 74.2486L113.443 74.46L113.896 74.6713C114.35 73.699 114.772 72.7119 115.162 71.7113L114.697 71.5296ZM97.374 94.2594L97.069 93.8633C95.7947 94.8443 94.4727 95.7771 93.1065 96.6583L93.3775 97.0785L93.6486 97.4986C95.0379 96.6025 96.3826 95.6537 97.6791 94.6556L97.374 94.2594ZM69.9229 106.093L69.84 105.6C68.0436 105.902 66.2182 106.131 64.3678 106.282L64.4085 106.78L64.4493 107.279C66.3279 107.125 68.1815 106.893 70.0058 106.587L69.9229 106.093ZM48.2158 106.117L48.2975 105.623C47.8726 105.553 47.4494 105.478 47.0278 105.399L46.936 105.891L46.8441 106.382C47.2724 106.463 47.7024 106.538 48.134 106.61L48.2158 106.117ZM46.936 105.891L47.0277 105.399C45.8163 105.173 44.6187 104.914 43.4361 104.622L43.3163 105.107L43.1964 105.593C44.3976 105.889 45.614 106.153 46.8442 106.382L46.936 105.891ZM28.1782 99.2021L28.4197 98.7643C27.7373 98.3879 27.0641 97.9992 26.4006 97.5989L26.1423 98.027L25.884 98.4551C26.5585 98.8621 27.2429 99.2573 27.9367 99.64L28.1782 99.2021ZM9.63284 83.0345L10.0366 82.7396C9.43516 81.9161 8.85881 81.0762 8.30854 80.2215L7.88813 80.4922L7.46773 80.7629C8.02862 81.6341 8.61607 82.4901 9.22907 83.3294L9.63284 83.0345ZM0.0100435 54.9876L0.50994 54.9775C0.503327 54.6524 0.5 54.3267 0.5 54H0H-0.5C-0.5 54.3335 -0.496604 54.666 -0.489853 54.9978L0.0100435 54.9876ZM0 54H0.5C0.5 53.29 0.515953 52.58 0.547597 51.8709L0.0480941 51.8486L-0.451409 51.8263C-0.48371 52.5502 -0.5 53.2751 -0.5 54H0ZM8.8222 25.3151L9.24022 25.5895C9.72429 24.8519 10.2267 24.1244 10.7471 23.4081L10.3425 23.1143L9.93803 22.8204C9.40835 23.5495 8.89691 24.29 8.40419 25.0408L8.8222 25.3151ZM36.5878 3.33659L36.7576 3.80688C37.3338 3.59887 37.9153 3.40017 38.5022 3.21046L38.3484 2.7347L38.1946 2.25894C37.5973 2.45204 37.0051 2.65438 36.4181 2.8663L36.5878 3.33659ZM52.4594 62.3506L51.9766 62.4805L52.4392 64.2005L52.922 64.0707L53.4048 63.9408L52.9422 62.2208L52.4594 62.3506ZM52.922 64.0707L53.0066 63.5779L49.1688 62.9191L49.0842 63.4119L48.9996 63.9047L52.8374 64.5635L52.922 64.0707ZM49.0842 63.4119L49.2757 63.8738L52.3832 62.5853L52.1917 62.1235L52.0003 61.6616L48.8927 62.95L49.0842 63.4119ZM52.1917 62.1235L51.8682 62.5047L52.1359 62.7318L52.4594 62.3506L52.7829 61.9694L52.5153 61.7423L52.1917 62.1235ZM52.3776 62.0464L51.8947 62.1763L51.9766 62.4805L52.4594 62.3506L52.9422 62.2208L52.8604 61.9166L52.3776 62.0464ZM52.4594 62.3506L52.1359 62.7318L53.8495 64.1863L54.1731 63.805L54.4966 63.4238L52.7829 61.9694L52.4594 62.3506ZM54.1731 63.805L53.7863 63.4882L53.4413 63.9094L53.8281 64.2262L54.2149 64.5431L54.5599 64.1219L54.1731 63.805ZM53.8281 64.2262L53.9127 63.7334L53.0066 63.5779L52.922 64.0707L52.8374 64.5635L53.7435 64.719L53.8281 64.2262ZM52.922 64.0707L52.4392 64.2005L52.6946 65.1504L53.1775 65.0206L53.6603 64.8907L53.4048 63.9408L52.922 64.0707ZM53.1775 65.0206L52.7907 64.7037L52.0014 65.6673L52.3882 65.9841L52.7751 66.3009L53.5643 65.3374L53.1775 65.0206ZM52.3882 65.9841L52.5735 66.4485L53.5203 66.071L53.3351 65.6065L53.1498 65.1421L52.203 65.5197L52.3882 65.9841ZM53.3351 65.6065L52.8522 65.7364L53.3668 67.6497L53.8496 67.5198L54.3325 67.39L53.8179 65.4767L53.3351 65.6065ZM53.8496 67.5198L54.3311 67.6548L54.9995 65.2697L54.518 65.1348L54.0366 64.9999L53.3682 67.3849L53.8496 67.5198ZM54.518 65.1348L54.7032 65.5992L55.5345 65.2677L55.3493 64.8033L55.164 64.3389L54.3328 64.6703L54.518 65.1348ZM55.3493 64.8033L55.0257 65.1845L55.541 65.6219L55.8646 65.2406L56.1881 64.8594L55.6728 64.4221L55.3493 64.8033ZM55.8646 65.2406L55.477 64.9247L53.501 67.3486L53.8885 67.6645L54.2761 67.9805L56.2521 65.5566L55.8646 65.2406ZM53.8885 67.6645L53.4057 67.7944L55.4285 75.3157L55.9114 75.1858L56.3942 75.056L54.3714 67.5347L53.8885 67.6645ZM55.9114 75.1858L56.3966 75.3066L58.4314 67.1281L57.9462 67.0073L57.461 66.8866L55.4262 75.0651L55.9114 75.1858ZM57.9462 67.0073L58.2697 66.6261L56.1881 64.8594L55.8646 65.2406L55.541 65.6219L57.6226 67.3886L57.9462 67.0073ZM55.8646 65.2406L56.2521 65.5566L56.7276 64.9734L56.34 64.6574L55.9525 64.3415L55.477 64.9247L55.8646 65.2406ZM56.34 64.6574L56.2554 65.1502L57.2314 65.3178L57.316 64.825L57.4006 64.3322L56.4246 64.1646L56.34 64.6574ZM57.316 64.825L56.8378 64.9711L57.4844 67.0875L57.9626 66.9414L58.4408 66.7954L57.7942 64.6789L57.316 64.825ZM57.9626 66.9414L58.4478 67.0622L58.9263 65.1388L58.4411 65.0181L57.9559 64.8974L57.4774 66.8207L57.9626 66.9414ZM58.4411 65.0181L58.3565 65.5109L62.3592 66.198L62.4438 65.7052L62.5284 65.2124L58.5257 64.5253L58.4411 65.0181ZM62.4438 65.7052L62.7603 65.3181L59.6925 62.8103L59.3761 63.1974L59.0596 63.5845L62.1274 66.0923L62.4438 65.7052ZM59.3761 63.1974L59.5613 63.6619L61.6023 62.8479L61.4171 62.3835L61.2319 61.919L59.1909 62.733L59.3761 63.1974ZM61.4171 62.3835L61.5017 61.8907L59.2763 61.5087L59.1917 62.0014L59.1071 62.4942L61.3325 62.8763L61.4171 62.3835ZM59.1917 62.0014L59.6769 62.1222L59.9784 60.9104L59.4931 60.7897L59.0079 60.6689L58.7065 61.8807L59.1917 62.0014ZM59.4931 60.7897L59.8807 61.1056L61.9661 58.5475L61.5786 58.2316L61.191 57.9157L59.1056 60.4737L59.4931 60.7897ZM61.5786 58.2316L61.3871 57.7697L59.7714 58.4396L59.9629 58.9015L60.1544 59.3633L61.7701 58.6935L61.5786 58.2316ZM59.9629 58.9015L60.4481 59.0222L61.2218 55.9125L60.7366 55.7918L60.2514 55.6711L59.4777 58.7807L59.9629 58.9015ZM60.7366 55.7918L60.3498 55.475L56.8908 59.698L57.2776 60.0148L57.6644 60.3316L61.1234 56.1086L60.7366 55.7918ZM57.2776 60.0148L57.0861 59.5529L55.8953 60.0467L56.0868 60.5086L56.2783 60.9704L57.4691 60.4767L57.2776 60.0148ZM56.0868 60.5086L55.7703 60.8957L56.2414 61.2807L56.5578 60.8936L56.8743 60.5065L56.4032 60.1214L56.0868 60.5086ZM56.5578 60.8936L56.171 60.5768L55.8485 60.9705L56.2353 61.2873L56.6221 61.6041L56.9446 61.2104L56.5578 60.8936ZM56.2353 61.2873L56.7135 61.1412L56.4857 60.3954L56.0075 60.5414L55.5293 60.6875L55.7571 61.4334L56.2353 61.2873ZM56.0075 60.5414L55.816 60.0796L55.5871 60.1744L55.7786 60.6363L55.9701 61.0982L56.199 61.0033L56.0075 60.5414ZM55.7786 60.6363L56.2601 60.7712L56.3467 60.4623L55.8652 60.3274L55.3838 60.1925L55.2972 60.5014L55.7786 60.6363ZM55.8652 60.3274L56.1817 59.9403L51.1186 55.8014L50.8021 56.1885L50.4857 56.5757L55.5488 60.7145L55.8652 60.3274ZM50.8021 56.1885L50.3193 56.3184L51.5522 60.9028L52.0351 60.7729L52.5179 60.6431L51.285 56.0587L50.8021 56.1885ZM52.0351 60.7729L52.1197 60.2801L50.3213 59.9714L50.2367 60.4642L50.1521 60.957L51.9505 61.2657L52.0351 60.7729ZM50.2367 60.4642L49.9132 60.8454L51.8682 62.5047L52.1917 62.1235L52.5153 61.7423L50.5603 60.083L50.2367 60.4642ZM52.1917 62.1235L52.3832 62.5853L52.5691 62.5083L52.3776 62.0464L52.1861 61.5845L52.0003 61.6616L52.1917 62.1235ZM54.4495 61.1874L54.258 60.7255L52.1861 61.5845L52.3776 62.0464L52.5691 62.5083L54.641 61.6493L54.4495 61.1874ZM52.3776 62.0464L52.8604 61.9166L52.5179 60.6431L52.0351 60.7729L51.5522 60.9028L51.8947 62.1763L52.3776 62.0464ZM52.0351 60.7729L51.9505 61.2657L54.3649 61.6802L54.4495 61.1874L54.5341 60.6946L52.1197 60.2801L52.0351 60.7729ZM55.5703 61.3798L55.6549 60.887L54.5341 60.6946L54.4495 61.1874L54.3649 61.6802L55.4857 61.8726L55.5703 61.3798ZM54.4495 61.1874L54.641 61.6493L55.9701 61.0982L55.7786 60.6363L55.5872 60.1744L54.258 60.7255L54.4495 61.1874ZM55.7786 60.6363L55.2972 60.5014L55.0888 61.2449L55.5703 61.3798L56.0517 61.5147L56.2601 60.7712L55.7786 60.6363ZM56.0869 61.4685L56.4737 61.7853L56.6221 61.6041L56.2353 61.2873L55.8485 60.9705L55.7001 61.1516L56.0869 61.4685ZM56.2353 61.2873L55.7571 61.4334L55.8238 61.6515L56.3019 61.5054L56.7801 61.3593L56.7135 61.1412L56.2353 61.2873ZM56.3019 61.5054L56.3865 61.0126L56.1715 60.9757L56.0869 61.4685L56.0023 61.9613L56.2174 61.9982L56.3019 61.5054ZM55.2638 62.4734L55.7453 62.6083L56.0517 61.5147L55.5703 61.3798L55.0888 61.2449L54.7824 62.3385L55.2638 62.4734ZM55.5703 61.3798L55.4857 61.8726L56.0023 61.9613L56.0869 61.4685L56.1715 60.9757L55.6549 60.887L55.5703 61.3798ZM56.0869 61.4685L55.7001 61.1516L54.877 62.1566L55.2638 62.4734L55.6506 62.7902L56.4737 61.7853L56.0869 61.4685ZM54.7528 64.297L55.0763 63.9158L54.4966 63.4238L54.1731 63.805L53.8495 64.1863L54.4292 64.6783L54.7528 64.297ZM54.1731 63.805L54.5599 64.1219L55.6506 62.7902L55.2638 62.4734L54.877 62.1566L53.7863 63.4882L54.1731 63.805ZM55.2638 62.4734L54.7824 62.3385L54.2713 64.1621L54.7528 64.297L55.2342 64.432L55.7453 62.6083L55.2638 62.4734ZM54.8826 64.4072L55.2062 64.026L55.0763 63.9158L54.7528 64.297L54.4292 64.6783L54.5591 64.7885L54.8826 64.4072ZM54.7528 64.297L54.2713 64.1621L54.2478 64.246L54.7293 64.3809L55.2107 64.5158L55.2342 64.432L54.7528 64.297ZM54.7293 64.3809L54.8139 63.8881L53.9127 63.7334L53.8281 64.2262L53.7435 64.719L54.6447 64.8737L54.7293 64.3809ZM53.8281 64.2262L53.4413 63.9094L52.7907 64.7037L53.1775 65.0206L53.5643 65.3374L54.2149 64.5431L53.8281 64.2262ZM53.1775 65.0206L52.6946 65.1504L52.8522 65.7364L53.3351 65.6065L53.8179 65.4767L53.6603 64.8907L53.1775 65.0206ZM53.3351 65.6065L53.5203 66.071L54.7032 65.5992L54.518 65.1348L54.3328 64.6703L53.1498 65.1421L53.3351 65.6065ZM54.518 65.1348L54.9995 65.2697L55.2107 64.5158L54.7293 64.3809L54.2478 64.246L54.0366 64.9999L54.518 65.1348ZM54.7293 64.3809L54.6447 64.8737L54.798 64.9L54.8826 64.4072L54.9672 63.9145L54.8139 63.8881L54.7293 64.3809ZM55.9031 64.5824L55.9877 64.0896L54.9672 63.9145L54.8826 64.4072L54.798 64.9L55.8185 65.0752L55.9031 64.5824ZM54.8826 64.4072L54.5591 64.7885L55.0257 65.1845L55.3493 64.8033L55.6728 64.4221L55.2062 64.026L54.8826 64.4072ZM55.3493 64.8033L55.5345 65.2677L56.0883 65.0469L55.9031 64.5824L55.7179 64.118L55.164 64.3389L55.3493 64.8033ZM56.6411 64.2881L56.2536 63.9722L55.9525 64.3415L56.34 64.6574L56.7276 64.9734L57.0287 64.604L56.6411 64.2881ZM56.34 64.6574L56.4246 64.1646L55.9877 64.0896L55.9031 64.5824L55.8185 65.0752L56.2554 65.1502L56.34 64.6574ZM55.9031 64.5824L56.0883 65.0469L56.8263 64.7525L56.6411 64.2881L56.4559 63.8237L55.7179 64.118L55.9031 64.5824ZM57.0128 63.8322L56.6252 63.5163L56.2536 63.9722L56.6411 64.2881L57.0287 64.604L57.4003 64.1482L57.0128 63.8322ZM56.6411 64.2881L56.8263 64.7525L57.2818 64.5709L57.0965 64.1065L56.9113 63.6421L56.4559 63.8237L56.6411 64.2881ZM57.0965 64.1065L56.6184 64.2526L56.8378 64.9711L57.316 64.825L57.7942 64.6789L57.5747 63.9604L57.0965 64.1065ZM57.316 64.825L57.2314 65.3178L58.3565 65.5109L58.4411 65.0181L58.5257 64.5253L57.4006 64.3322L57.316 64.825ZM58.4411 65.0181L58.9263 65.1388L59.3262 63.5315L58.841 63.4108L58.3558 63.2901L57.9559 64.8974L58.4411 65.0181ZM58.841 63.4108L59.0262 63.8752L59.5613 63.6619L59.3761 63.1974L59.1909 62.733L58.6558 62.9464L58.841 63.4108ZM59.3761 63.1974L59.6925 62.8103L59.292 62.4829L58.9756 62.87L58.6591 63.2571L59.0596 63.5846L59.3761 63.1974ZM58.9756 62.87L59.4608 62.9908L59.6769 62.1222L59.1917 62.0014L58.7065 61.8807L58.4903 62.7493L58.9756 62.87ZM59.1917 62.0014L59.2763 61.5087L58.6741 61.4053L58.5895 61.8981L58.5049 62.3909L59.1071 62.4942L59.1917 62.0014ZM58.5895 61.8981L58.9771 62.214L59.8807 61.1056L59.4931 60.7897L59.1056 60.4737L58.202 61.5821L58.5895 61.8981ZM59.4931 60.7897L59.9784 60.9104L60.4481 59.0222L59.9629 58.9015L59.4777 58.7807L59.0079 60.6689L59.4931 60.7897ZM59.9629 58.9015L59.7714 58.4396L57.0861 59.5529L57.2776 60.0148L57.4691 60.4767L60.1544 59.3633L59.9629 58.9015ZM57.2776 60.0148L56.8908 59.698L56.171 60.5768L56.5578 60.8936L56.9446 61.2104L57.6644 60.3316L57.2776 60.0148ZM56.5578 60.8936L56.2414 61.2807L57.2567 62.1107L57.5731 61.7236L57.8896 61.3365L56.8743 60.5065L56.5578 60.8936ZM57.5731 61.7236L57.6577 61.2308L56.3865 61.0126L56.3019 61.5054L56.2174 61.9982L57.4885 62.2164L57.5731 61.7236ZM56.3019 61.5054L55.8238 61.6515L56.5346 63.9783L57.0128 63.8322L57.4909 63.6861L56.7801 61.3593L56.3019 61.5054ZM58.2684 62.292L57.952 62.6791L58.6591 63.2571L58.9756 62.87L59.292 62.4829L58.5849 61.9049L58.2684 62.292ZM58.9756 62.87L58.4903 62.7493L58.3558 63.2901L58.841 63.4108L59.3262 63.5315L59.4608 62.9908L58.9756 62.87ZM58.841 63.4108L58.6558 62.9464L56.9113 63.6421L57.0965 64.1065L57.2818 64.5709L59.0262 63.8752L58.841 63.4108ZM57.0965 64.1065L57.5747 63.9604L57.4909 63.6861L57.0128 63.8322L56.5346 63.9783L56.6184 64.2526L57.0965 64.1065ZM57.0128 63.8322L57.4003 64.1482L58.656 62.6079L58.2684 62.292L57.8809 61.976L56.6252 63.5163L57.0128 63.8322ZM58.2684 62.292L58.5849 61.9049L57.8896 61.3365L57.5731 61.7236L57.2567 62.1107L57.952 62.6791L58.2684 62.292ZM57.5731 61.7236L57.4885 62.2164L58.5049 62.3909L58.5895 61.8981L58.6741 61.4053L57.6577 61.2308L57.5731 61.7236ZM58.5895 61.8981L58.202 61.5821L57.8809 61.976L58.2684 62.292L58.656 62.6079L58.9771 62.214L58.5895 61.8981ZM55.9306 0L56.923 -0.123288L56.8141 -1H55.9306V0ZM61.1033 41.6357L62.0662 41.9056L62.1205 41.712L62.0957 41.5125L61.1033 41.6357ZM63.5601 44.4434L62.7884 43.8075L62.6444 43.9822L62.5897 44.2019L63.5601 44.4434ZM92.763 9L93.1027 8.05948L92.4396 7.81994L91.9912 8.36411L92.763 9ZM97.2245 11.2448L97.9981 11.8784L98.7055 11.0149L97.7696 10.4064L97.2245 11.2448ZM98.9099 12.4391L99.5192 11.6462L98.7488 11.0542L98.1348 11.8073L98.9099 12.4391ZM114.451 36.3102L114.834 37.234L115.71 36.8708L115.394 35.9769L114.451 36.3102ZM115.844 40.6787L116.806 40.4053L116.503 39.3394L115.473 39.7498L115.844 40.6787ZM114.697 71.5296L114.527 72.5152L115.332 72.6533L115.628 71.893L114.697 71.5296ZM113.443 74.46L114.35 74.8825L114.903 73.6959L113.612 73.4744L113.443 74.46ZM97.374 94.2594L96.7411 95.0337L97.3554 95.5358L97.9841 95.0518L97.374 94.2594ZM93.3775 97.0785L93.9196 97.9188L95.0522 97.1881L94.0246 96.316L93.3775 97.0785ZM69.9229 106.093L68.9665 106.386L69.223 107.225L70.0887 107.08L69.9229 106.093ZM64.4085 106.78L64.4899 107.777L65.6859 107.679L65.3742 106.521L64.4085 106.78ZM48.2158 106.117L47.2453 105.875L46.9839 106.926L48.0521 107.103L48.2158 106.117ZM43.3163 105.107L43.0765 106.078L44.0176 106.31L44.2792 105.377L43.3163 105.107ZM42.0252 104.774L42.2854 103.808L42.2853 103.808L42.0252 104.774ZM28.1782 99.2021L27.4031 98.5703L26.6458 99.4992L27.6953 100.078L28.1782 99.2021ZM26.1423 98.027L25.6256 98.8832L26.3671 99.3307L26.9159 98.6607L26.1423 98.027ZM9.63284 83.0345L9.26242 82.1056L8.06495 82.5832L8.82528 83.6243L9.63284 83.0345ZM7.88813 80.4922L7.04728 81.0334L7.49944 81.7359L8.27113 81.4159L7.88813 80.4922ZM0.0100435 54.9876L0.179232 54.002L-1.01438 53.7971L-0.98975 55.008L0.0100435 54.9876ZM0.0480941 51.8486L-0.950912 51.8041L-0.990222 52.685L-0.121095 52.8342L0.0480941 51.8486ZM8.8222 25.3151L9.46928 24.5527L8.60678 23.8207L7.98613 24.7665L8.8222 25.3151ZM10.3425 23.1143L9.53352 22.5265L8.97833 23.2907L9.70964 23.8885L10.3425 23.1143ZM36.5878 3.33659L37.5535 3.07687L37.2711 2.02693L36.2484 2.39595L36.5878 3.33659ZM38.3484 2.7347L38.0408 1.7832L37.1046 2.08588L37.3921 3.02686L38.3484 2.7347ZM49.0842 63.4119L49.4672 64.3356L52.6614 63.0113L49.2534 62.4263L49.0842 63.4119ZM52.3882 65.9841L53.1619 66.6178L52.0178 65.0552L52.3882 65.9841ZM53.8496 67.5198L54.8153 67.2601L53.8694 63.7432L52.8867 67.25L53.8496 67.5198ZM53.8885 67.6645L54.6636 68.2964L54.9873 67.8994L54.8542 67.4048L53.8885 67.6645ZM55.9114 75.1858L56.8771 74.9261L55.8737 71.1954L54.941 74.9444L55.9114 75.1858ZM57.9462 67.0073L56.9758 66.7659L56.8259 67.3682L57.2991 67.7698L57.9462 67.0073ZM57.9626 66.9414L58.919 66.6493L57.864 63.196L56.9922 66.7L57.9626 66.9414ZM62.4438 65.7052L62.613 64.7197L58.8727 64.0776L61.8109 66.4795L62.4438 65.7052ZM61.4171 62.3835L61.0467 61.4546L57.7513 62.7688L61.2479 63.3691L61.4171 62.3835ZM61.5786 58.2316L60.8035 57.5997L61.9616 59.1554L61.5786 58.2316ZM60.7366 55.7918L59.7662 55.5504L61.5102 56.4255L60.7366 55.7918ZM56.0868 60.5086L56.4698 61.4323L58.0137 60.7922L56.7197 59.7343L56.0868 60.5086ZM56.0075 60.5414L55.0511 60.8336L55.3729 61.8871L56.3905 61.4652L56.0075 60.5414ZM55.8652 60.3274L54.9023 60.0576L54.7258 60.6876L55.2323 61.1017L55.8652 60.3274ZM50.8021 56.1885L50.1692 56.9628L52.5748 58.9292L51.7678 55.9288L50.8021 56.1885ZM50.2367 60.4642L50.0675 61.4498L53.6726 62.0686L50.8838 59.7018L50.2367 60.4642ZM55.9306 0L54.9383 0.123288L60.1109 41.759L61.1033 41.6357L62.0957 41.5125L56.923 -0.123288L55.9306 0ZM63.5601 44.4434L64.3319 45.0793L93.5348 9.63589L92.763 9L91.9912 8.36411L62.7884 43.8075L63.5601 44.4434ZM92.763 9L92.4233 9.94052C93.8918 10.471 95.3116 11.1939 96.6795 12.0832L97.2245 11.2448L97.7696 10.4064C96.287 9.44252 94.7303 8.64737 93.1027 8.05948L92.763 9ZM98.9099 12.4391L98.3006 13.2321C105.071 18.4348 110.31 27.5994 113.508 36.6436L114.451 36.3102L115.394 35.9769C112.137 26.7645 106.728 17.1853 99.5192 11.6462L98.9099 12.4391ZM115.844 40.6787L114.882 40.9522C116.278 45.8625 117 50.4507 117 54H118H119C119 50.2131 118.235 45.4344 116.806 40.4053L115.844 40.6787ZM118 54H117C117 60.0157 115.861 65.792 113.765 71.1663L114.697 71.5296L115.628 71.893C117.812 66.2933 119 60.271 119 54H118ZM113.443 74.46L112.537 74.0374C109.024 81.5707 103.587 88.2144 96.764 93.4671L97.374 94.2594L97.9841 95.0518C105.044 89.6162 110.693 82.7245 114.35 74.8825L113.443 74.46ZM93.3775 97.0785L92.8354 96.2381C86.087 100.592 78.2502 103.679 69.7571 105.107L69.9229 106.093L70.0887 107.08C78.848 105.607 86.9411 102.421 93.9196 97.9188L93.3775 97.0785ZM64.4085 106.78L64.3272 105.784C62.5731 105.927 60.7962 106 59 106V107V108C60.8505 108 62.6817 107.925 64.4899 107.777L64.4085 106.78ZM59 107V106C55.3716 106 51.8219 105.701 48.3795 105.13L48.2158 106.117L48.0521 107.103C51.6025 107.692 55.2617 108 59 108V107ZM43.3163 105.107L43.5561 104.136C43.1305 104.031 42.7069 103.922 42.2854 103.808L42.0252 104.774L41.765 105.739C42.2002 105.857 42.6373 105.969 43.0765 106.078L43.3163 105.107ZM42.0252 104.774L42.2853 103.808C37.4465 102.505 32.875 100.65 28.661 98.3265L28.1782 99.2021L27.6953 100.078C32.0506 102.479 36.7718 104.394 41.7651 105.739L42.0252 104.774ZM26.1423 98.027L26.6589 97.1708C20.2135 93.2815 14.6916 88.2658 10.4404 82.4447L9.63284 83.0345L8.82528 83.6243C13.2398 89.669 18.9628 94.8626 25.6256 98.8832L26.1423 98.027ZM7.88813 80.4922L8.72899 79.9509C3.97794 72.5701 1.19465 64.0518 1.00984 54.9673L0.0100435 54.9876L-0.98975 55.008C-0.796984 64.4834 2.10755 73.3595 7.04728 81.0334L7.88813 80.4922ZM0.0480941 51.8486L1.0471 51.8932C1.45512 42.7493 4.5017 33.7221 9.65827 25.8637L8.8222 25.3151L7.98613 24.7665C2.6452 32.9058 -0.525849 42.2782 -0.950912 51.8041L0.0480941 51.8486ZM10.3425 23.1143L11.1516 23.702C17.3988 15.1032 26.2505 8.12965 36.9272 4.27723L36.5878 3.33659L36.2484 2.39595C25.1769 6.39082 16.0045 13.6197 9.53352 22.5265L10.3425 23.1143ZM38.3484 2.7347L38.6561 3.68621C44.0081 1.95583 49.7965 1 55.9306 1V0V-1C49.5869 -1 43.5909 -0.0112126 38.0408 1.7832L38.3484 2.7347ZM53.8496 67.5198L52.8839 67.7796L52.9229 67.9243L53.8885 67.6645L54.8542 67.4048L54.8153 67.2601L53.8496 67.5198ZM55.9114 75.1858L54.9457 75.4456L63.4429 107.04L64.4085 106.78L65.3742 106.521L56.8771 74.9261L55.9114 75.1858ZM69.9229 106.093L70.8793 105.801L58.919 66.6493L57.9626 66.9414L57.0062 67.2336L68.9665 106.386L69.9229 106.093ZM56.0075 60.5414L56.9638 60.2493L39.3048 2.44254L38.3484 2.7347L37.3921 3.02686L55.0511 60.8336L56.0075 60.5414ZM36.5878 3.33659L35.6222 3.59631L49.8364 56.4483L50.8021 56.1885L51.7678 55.9288L37.5535 3.07687L36.5878 3.33659ZM55.8652 60.3274L56.8281 60.5973L62.0662 41.9056L61.1033 41.6357L60.1404 41.3659L54.9023 60.0576L55.8652 60.3274ZM63.5601 44.4434L62.5897 44.2019L59.7662 55.5504L60.7366 55.7918L61.707 56.0333L64.5305 44.6848L63.5601 44.4434ZM53.8496 67.5198L52.8867 67.25L42.3534 104.837L43.3163 105.107L44.2792 105.377L54.8125 67.7897L53.8496 67.5198ZM48.2158 106.117L49.1862 106.358L56.8818 75.4273L55.9114 75.1858L54.941 74.9444L47.2453 105.875L48.2158 106.117ZM57.9462 67.0073L58.9166 67.2488L58.933 67.1829L57.9626 66.9414L56.9922 66.7L56.9758 66.7659L57.9462 67.0073ZM28.1782 99.2021L28.9532 99.834L54.6636 68.2964L53.8885 67.6645L53.1135 67.0327L27.4031 98.5703L28.1782 99.2021ZM52.3882 65.9841L51.6146 65.3504L25.3687 97.3934L26.1423 98.027L26.9159 98.6607L53.1619 66.6178L52.3882 65.9841ZM61.5786 58.2316L62.3536 58.8635L99.685 13.071L98.9099 12.4391L98.1348 11.8073L60.8035 57.5997L61.5786 58.2316ZM97.2245 11.2448L96.4509 10.6111L59.963 55.1582L60.7366 55.7918L61.5102 56.4255L97.9981 11.8784L97.2245 11.2448ZM50.8021 56.1885L51.435 55.4143L10.9754 22.34L10.3425 23.1143L9.70964 23.8885L50.1692 56.9628L50.8021 56.1885ZM8.8222 25.3151L8.17513 26.0775L49.5896 61.2266L50.2367 60.4642L50.8838 59.7018L9.46928 24.5527L8.8222 25.3151ZM57.9462 67.0073L57.2991 67.7698L92.7305 97.8409L93.3775 97.0785L94.0246 96.316L58.5933 66.2449L57.9462 67.0073ZM97.374 94.2594L98.007 93.4852L63.0767 64.931L62.4438 65.7052L61.8109 66.4795L96.7411 95.0337L97.374 94.2594ZM56.0868 60.5086L56.7197 59.7343L56.4981 59.5532L55.8652 60.3274L55.2323 61.1017L55.4539 61.2828L56.0868 60.5086ZM49.0842 63.4119L48.7012 62.4881L7.50514 79.5684L7.88813 80.4922L8.27113 81.4159L49.4672 64.3356L49.0842 63.4119ZM9.63284 83.0345L10.0033 83.9634L52.7587 66.913L52.3882 65.9841L52.0178 65.0552L9.26242 82.1056L9.63284 83.0345ZM61.4171 62.3835L61.7876 63.3123L116.214 41.6076L115.844 40.6787L115.473 39.7498L61.0467 61.4546L61.4171 62.3835ZM114.451 36.3102L114.068 35.3865L61.1956 57.3079L61.5786 58.2316L61.9616 59.1554L114.834 37.234L114.451 36.3102ZM56.0868 60.5086L55.7038 59.5848L55.6245 59.6177L56.0075 60.5414L56.3905 61.4652L56.4698 61.4323L56.0868 60.5086ZM50.2367 60.4642L50.4059 59.4786L0.217283 50.8631L0.0480941 51.8486L-0.121095 52.8342L50.0675 61.4498L50.2367 60.4642ZM0.0100435 54.9876L-0.159145 55.9732L48.915 64.3975L49.0842 63.4119L49.2534 62.4263L0.179232 54.002L0.0100435 54.9876ZM62.4438 65.7052L62.2747 66.6908L113.274 75.4455L113.443 74.46L113.612 73.4744L62.613 64.7197L62.4438 65.7052ZM114.697 71.5296L114.866 70.544L61.5863 61.3979L61.4171 62.3835L61.2479 63.3691L114.527 72.5152L114.697 71.5296Z" fill="#54A642" mask="url(#path-1-inside-1_269_40)"/>
</svg>
