<svg width="123" height="113" viewBox="0 0 123 113" fill="none" xmlns="http://www.w3.org/2000/svg">
<path fill-rule="evenodd" clip-rule="evenodd" d="M77.6908 102.474C78.7854 103.072 79.9408 103.542 81.1665 103.872C138.761 119.397 127.785 34.3418 102.26 9.85043C87.3169 -4.48866 55.9916 -0.247966 47.2333 4.41625C47.2333 4.41625 46.9035 4.58913 46.7335 4.67682C45.573 5.27534 44.3022 5.93079 43.9033 7.00867L57.769 40.5923L50.2229 28.8356L41.3217 14.6915C36.1815 9.85043 31.7512 10.4864 23.2313 13.0395C8.5619 17.4353 -7.11504 49.6648 3.46519 72.1635C15.393 97.5279 48.5461 118.199 62.0975 111.838C69.4173 109.748 74.4334 106.499 77.6908 102.474Z" fill="#2F741F"/>
<path d="M65.35 60.693C65.4448 60.1314 65.9915 59.7506 66.571 59.8425C67.1505 59.9345 67.5434 60.4643 67.4485 61.026L60.8882 99.867C60.7934 100.429 60.2467 100.809 59.6672 100.717C59.0877 100.626 58.6948 100.096 58.7897 99.534L65.35 60.693Z" fill="#54A642"/>
<path d="M65.8542 60.9261C65.7066 60.3753 66.0476 59.8127 66.616 59.6697C67.1843 59.5266 67.7648 59.8572 67.9124 60.408L76.8923 93.9193C77.0399 94.4702 76.6988 95.0327 76.1305 95.1758C75.5621 95.3188 74.9817 94.9883 74.8341 94.4374L65.8542 60.9261Z" fill="#54A642"/>
<path d="M65.8357 61.607C65.3554 61.2795 65.24 60.6367 65.5779 60.1712C65.9157 59.7057 66.579 59.5938 67.0592 59.9213L98.3957 81.2876C98.876 81.6151 98.9914 82.2579 98.6535 82.7234C98.3157 83.1889 97.6524 83.3008 97.1721 82.9733L65.8357 61.607Z" fill="#54A642"/>
<path d="M68.8284 61.5672C68.2421 61.5356 67.7933 61.0492 67.8259 60.481C67.8586 59.9127 68.3603 59.4777 68.9466 59.5094L107.201 61.5741C107.788 61.6058 108.236 62.0921 108.204 62.6603C108.171 63.2286 107.669 63.6636 107.083 63.6319L68.8284 61.5672Z" fill="#54A642"/>
<path d="M67.5744 61.6877C67.0465 61.9368 66.4101 61.724 66.153 61.2123C65.8959 60.7006 66.1155 60.0838 66.6435 59.8347L97.0796 45.4707C97.6075 45.2215 98.2439 45.4343 98.501 45.946C98.7581 46.4577 98.5385 47.0745 98.0105 47.3237L67.5744 61.6877Z" fill="#54A642"/>
<path d="M68.2154 59.2082C67.925 59.7028 67.2758 59.8755 66.7654 59.594C66.2551 59.3125 66.0769 58.6833 66.3674 58.1886L86.5251 23.8659C86.8156 23.3713 87.4648 23.1985 87.9752 23.4801C88.4855 23.7616 88.6637 24.3908 88.3732 24.8855L68.2154 59.2082Z" fill="#54A642"/>
<path d="M67.9585 59.4662C67.9598 60.0353 67.4848 60.4977 66.8976 60.499C66.3104 60.5002 65.8333 60.0399 65.832 59.4708L65.7244 12.9237C65.7231 12.3545 66.1981 11.8921 66.7853 11.8909C67.3725 11.8896 67.8496 12.3499 67.8509 12.9191L67.9585 59.4662Z" fill="#54A642"/>
<path d="M67.2124 58.9234C67.623 59.3302 67.6156 59.9827 67.1959 60.3806C66.7761 60.7786 66.103 60.7715 65.6923 60.3646L28.2965 23.3152C27.8858 22.9083 27.8932 22.2559 28.313 21.8579C28.7327 21.4599 29.4059 21.4671 29.8166 21.8739L67.2124 58.9234Z" fill="#54A642"/>
<path d="M67.0077 60.4048C67.5137 60.6936 67.6825 61.3252 67.3846 61.8157C67.0867 62.3061 66.435 62.4697 65.9289 62.1809L22.3349 37.3086C21.8289 37.0199 21.6601 36.3883 21.958 35.8978C22.2559 35.4073 22.9076 35.2438 23.4137 35.5325L67.0077 60.4048Z" fill="#54A642"/>
<path d="M66.561 59.5757C67.144 59.5074 67.6737 59.9101 67.7441 60.4751C67.8146 61.0401 67.3991 61.5535 66.8162 61.6218L26.0375 66.3984C25.4545 66.4667 24.9248 66.064 24.8544 65.499C24.7839 64.934 25.1994 64.4206 25.7823 64.3523L66.561 59.5757Z" fill="#54A642"/>
<path d="M65.5059 58.9478C65.8638 58.4966 66.5313 58.4121 66.9968 58.759C67.4624 59.1059 67.5496 59.7528 67.1917 60.204L42.1555 91.7648C41.7976 92.216 41.13 92.3005 40.6645 91.9536C40.199 91.6067 40.1117 90.9597 40.4697 90.5086L65.5059 58.9478Z" fill="#54A642"/>
</svg>
