<svg width="116" height="119" viewBox="0 0 116 119" fill="none" xmlns="http://www.w3.org/2000/svg">
<path fill-rule="evenodd" clip-rule="evenodd" d="M67.9116 26.4639C68.2482 27.4477 69.5638 27.6903 70.247 26.8945L87.8544 6.38128C104.152 15.8251 116 35.2881 116 59.4325C116 93.8027 83.6833 122.327 54.088 118.686C27.4099 118.686 0 93.8027 0 59.4325C9.57344e-05 27.4824 30.2778 1.15561 58.8617 0L67.9116 26.4639Z" fill="#2F741F"/>
<path fill-rule="evenodd" clip-rule="evenodd" d="M67.9116 26.4639C68.2482 27.4477 69.5638 27.6903 70.247 26.8945L87.8544 6.38128C104.152 15.8251 116 35.2881 116 59.4325C116 93.8027 83.6833 122.327 54.088 118.686C27.4099 118.686 0 93.8027 0 59.4325C9.57344e-05 27.4824 30.2778 1.15561 58.8617 0L67.9116 26.4639ZM57.0612 69.1964C56.9443 68.3653 56.0003 68.0835 55.2965 68.568C52.849 70.2532 51.5332 73.7513 50.2269 77.2244C50.1287 77.4854 50.0306 77.7462 49.9321 78.0061C49.6988 78.6215 49.4582 79.2189 49.2256 79.7965C48.1623 82.4364 47.2649 84.6645 47.9881 86.3224C48.2204 86.8552 48.8316 87.1211 49.4132 87C51.7841 86.5061 53.2926 84.0684 54.6866 80.2043C55.7998 77.1185 57.4403 71.8919 57.0612 69.1964ZM62.999 67.0855C62.1853 66.8903 61.392 67.4176 61.2503 68.2215C60.7841 70.8662 62.2696 73.1222 64.8606 77.0572C64.9519 77.1957 65.0444 77.3364 65.1384 77.4792C67.8277 81.5676 69.9072 83.6678 72.1266 84.207C72.8766 84.3892 73.6217 83.9271 73.7976 83.1945C74.3925 80.7162 73.2822 77.6233 70.5387 73.4526C67.9264 69.4813 65.2067 67.6156 62.999 67.0855ZM49.075 65.7349C45.9379 64.2897 42.2478 65.5458 38.7708 67.4909C35.8382 69.1314 33.1791 71.2754 32.6164 73.7901C32.4843 74.3805 32.7757 74.9934 33.3485 75.2267C36.052 76.327 40.1861 74.2128 43.5332 72.4563C46.4329 70.9345 49.1262 69.3416 49.8331 67.2956C50.0489 66.6709 49.6872 66.0169 49.075 65.7349ZM76.7788 62.4156C71.9761 60.6261 68.9592 60.0522 66.1994 61.2137C65.4302 61.5375 65.1122 62.3987 65.6839 62.9949C67.6894 65.0853 73.1409 67.4165 73.1744 67.4308C73.1744 67.4308 80.3381 70.4339 83.7232 69.9503C84.4878 69.8409 84.8231 69.0481 84.5384 68.3488C83.6581 66.1881 81.4576 64.159 76.7788 62.4156ZM41.3048 52.5948C36.4438 51.4144 33.4455 51.8503 31.4517 53.1301C30.8064 53.5444 30.6141 54.3817 31.1766 54.8977C33.6586 57.175 41.2601 58.7059 41.3048 58.7149C41.3048 58.7149 47.1722 59.8532 50.0557 59.2567C50.8755 59.087 51.1226 58.2041 50.6829 57.5097C49.1053 55.0188 46.2947 53.8065 41.3048 52.5948ZM46.4825 38.1836C45.7344 37.9938 44.9839 38.4484 44.8002 39.1792C44.1791 41.6514 45.2565 44.7554 47.9555 48.9535C50.5256 52.9509 53.2254 54.8439 55.4274 55.3962C56.2391 55.5998 57.0378 55.0801 57.1881 54.2777C57.6824 51.6378 56.2208 49.3669 53.6716 45.406C53.5819 45.2665 53.4907 45.125 53.3983 44.9812C50.7526 40.8661 48.696 38.7451 46.4825 38.1836ZM80.6576 44.325C78.3722 43.3752 75.4869 43.9868 71.5579 46.0247C67.8047 47.9714 66.0567 50.3159 65.5756 52.3362C65.4086 53.0372 65.8225 53.739 66.519 53.9809C69.0728 54.868 71.2337 53.6685 75.1835 51.6198C79.0409 49.619 81.0011 47.9326 81.4874 45.8825C81.6402 45.2381 81.2826 44.5847 80.6576 44.325Z" fill="#3B9427"/>
</svg>
