<svg width="125" height="107" viewBox="0 0 125 107" fill="none" xmlns="http://www.w3.org/2000/svg">
<path d="M95.4408 51.3217C100.559 59.1731 109.267 77.9737 102.003 90.4575C101.28 91.6994 100.4 92.8789 99.3416 93.9788C95.097 98.3911 87.9986 101.524 76.803 102.279C76.1306 102.325 75.4435 102.362 74.7413 102.39C72.3542 102.485 69.7933 102.478 67.0479 102.36C65.9063 102.36 64.7565 102.238 63.6036 102.004C61.4971 101.578 59.3806 100.779 57.2854 99.6758C41.5519 91.3888 27.0245 65.8913 27.0245 51.3217C19.4986 33.7565 23.5255 0.945905 42.4182 0.945905C72.8633 -6.67692 95.4408 33.75 95.4408 51.3217Z" fill="#54A642"/>
<path d="M58.4959 66.5659C58.4959 80.1107 23.9457 92.7487 23.9457 92.7487C23.9457 92.7487 0 80.1107 0 66.5659C0 53.0211 38.3131 10.2262 40.7077 25.1393C56.0107 25.1393 58.4959 53.0211 58.4959 66.5659Z" fill="#54A642"/>
<path d="M113.913 21.1623C113.913 34.158 99.3835 51.3215 84.8361 51.3215C70.2888 51.3215 58.4959 40.7864 58.4959 27.7907C58.4959 14.795 70.2888 1.93997 84.8361 1.93997C99.3835 1.93997 113.913 8.16661 113.913 21.1623Z" fill="#54A642"/>
<path d="M124.86 39.7704C126.487 52.3715 113.628 65.2411 103.993 65.2411C94.3575 65.2411 86.5465 56.635 86.5465 46.0188C86.5465 35.4026 98.8045 20.8309 108.44 20.8309C118.075 20.8309 123.622 30.1858 124.86 39.7704Z" fill="#54A642"/>
<path d="M124.86 71.9181C124.86 79.2396 104.473 81.1493 95.7827 81.1493C87.0921 81.1493 86.5465 71.8974 86.5465 64.5759C86.5465 57.2544 98.3808 45.6873 107.071 45.6873C124.86 37.0709 124.86 64.5965 124.86 71.9181Z" fill="#54A642"/>
<path d="M54.1528 92.8456C54.1528 101.998 42.1173 107 34.7901 107C34.3236 107 33.8496 106.97 33.371 106.911C32.7481 106.835 32.1173 106.71 31.485 106.54C24.9731 104.789 18.2961 98.2398 18.2961 90.429C-0.349326 73.858 27.4629 73.858 34.7901 73.858C42.1173 73.858 68.8541 83.8697 54.1528 92.8456Z" fill="#54A642"/>
<path d="M55.4666 66.06C56.4287 66.811 57.5099 67.4864 58.6602 68.0537C57.8275 72.8597 56.4918 81.2817 56.1828 87.4682C56.0055 91.0192 56.1404 95.2386 56.3839 99.1806C55.3141 98.571 54.2523 97.8825 53.2003 97.1267C50.2165 103.545 40.8786 107 34.7901 107C34.3348 107 33.8725 106.97 33.4057 106.915C35.3963 99.793 38.4786 90.1433 41.8856 84.5152C46.7594 76.464 53.4551 68.421 55.4666 66.06Z" fill="#2F741F"/>
<path d="M52.1213 62.2991C52.5281 63.043 53.066 63.7689 53.7081 64.4585C51.5093 67.2324 44.5123 76.1817 40.2039 83.1125C36.2291 89.5065 33.2614 99.2949 31.4441 106.529C26.2785 105.124 21.0181 100.705 19.077 95.0372C21.2076 91.5994 27.5638 81.6629 33.2079 76.055C38.6626 70.6355 47.8407 64.8642 52.1213 62.2991Z" fill="#2F741F"/>
<path d="M64.7756 69.8376C64.8503 69.8445 64.9249 69.8508 64.9994 69.8564C64.969 74.5744 65.1586 82.2363 66.4894 87.6592C67.654 92.4048 70.3425 98.0867 72.6528 102.445C70.8761 102.471 69.0091 102.444 67.0479 102.36C65.9063 102.36 64.7565 102.238 63.6036 102.004C63.2197 101.927 62.8356 101.836 62.4512 101.734C61.7304 96.9522 61.1978 91.6759 61.449 87.4682C61.7803 81.9189 63.4692 74.7302 64.7756 69.8376Z" fill="#2F741F"/>
<path d="M66.8401 69.8486C70.5832 74.7885 77.4175 83.1913 83.8834 87.9C87.6804 90.6649 92.6703 93.4974 97.2299 95.8754C92.8705 99.2771 86.3166 101.637 76.803 102.279C76.1364 102.324 75.4553 102.361 74.7594 102.389C72.4765 98.0427 69.8115 92.3945 68.5793 87.6592C67.1729 82.2549 66.7126 74.5975 66.5622 69.8739C66.6551 69.8669 66.7477 69.8591 66.8401 69.8486Z" fill="#2F741F"/>
<path d="M76.5627 62.7988C76.745 62.867 76.929 62.9346 77.1139 63.0034C82.2343 66.1905 88.365 69.8257 93.4623 72.3175C98.7228 74.8889 105.726 77.6346 111.385 79.7278C109.189 80.1358 106.919 80.4407 104.74 80.6618C104.561 84.1307 103.739 87.4745 102.003 90.4575C101.562 91.2146 101.062 91.9477 100.5 92.6544C95.9939 90.2495 90.8682 87.3333 86.9795 84.6007C80.2471 79.8696 74.5029 72.1032 71.6319 67.8193C73.5324 66.4472 75.2128 64.5798 76.5627 62.7988Z" fill="#2F741F"/>
<path d="M51.2982 59.8348C51.3142 59.9742 51.3342 60.1137 51.361 60.253C47.4272 62.5665 37.3214 68.7209 31.5423 74.1674C26.4285 78.9869 21.0608 86.6743 18.3027 90.8478C18.2984 90.7086 18.2961 90.569 18.2961 90.429C16.8773 89.1681 15.728 88.0028 14.8177 86.9265C13.0221 85.6108 11.136 84.1124 9.33374 82.4743C13.7654 78.0593 19.766 72.6211 25.1958 69.5146C32.8767 65.1201 46.6588 61.1153 51.2982 59.8348Z" fill="#2F741F"/>
<path d="M52.3491 55.7096C52.1064 56.2476 51.8761 56.7813 51.6543 57.3032C51.5147 57.6317 51.4155 57.9649 51.3509 58.3007C46.7869 59.3831 32.8847 62.9041 25.1597 67.3332C19.2948 70.6959 12.8294 76.7337 8.23333 81.4451C3.72357 77.1056 9.88427e-05 71.9065 0 66.5659C0 65.4164 0.275877 64.0563 0.782377 62.5386C7.1953 60.978 16.785 58.7686 23.9457 57.6638C33.4264 56.201 47.5149 55.8059 52.3491 55.7096Z" fill="#2F741F"/>
<path d="M84.8001 65.757C90.3455 67.6603 96.154 69.4544 100.893 70.4629C107.874 71.9484 117.052 73.1672 124.254 73.9972C122.735 76.474 118.532 78.1576 113.638 79.2656C107.657 76.7868 99.4985 73.299 93.4623 70.3121C90.7922 68.9909 87.794 67.3997 84.8001 65.757Z" fill="#2F741F"/>
<path d="M123.401 55.56C124.859 61.7463 124.86 68.7379 124.86 71.9181C124.86 72.2701 124.812 72.6095 124.721 72.9369C117.469 72.2011 108.024 70.9801 100.798 69.1198C94.7244 67.556 85.3788 64.1015 77.7587 61.1275C77.8109 61.0503 77.8624 60.9737 77.913 60.8977C85.1117 60.791 96.1467 60.4386 104.179 59.3157C110.207 58.4729 117.886 56.8266 123.401 55.56Z" fill="#2F741F"/>
<path d="M124.027 35.5609C124.398 36.9394 124.677 38.3523 124.86 39.7704C125.351 43.5782 124.518 47.4097 122.853 50.904C117.002 53.041 109.587 55.4651 104.187 56.2417C96.7832 57.3064 86.8019 57.8214 79.6374 58.0677C79.8993 57.5942 80.0421 57.3131 80.047 57.3032C80.047 57.3032 80.7055 56.2467 81.1113 54.7464C87.3667 53.0819 100.654 49.3387 108.861 45.5242C113.914 43.1754 119.572 39.102 124.027 35.5609Z" fill="#2F741F"/>
<path d="M12.659 43.058C18.02 43.5936 24.733 44.3884 29.9388 45.411C37.998 46.994 49.2486 50.4595 54.2292 52.0465C54.0401 52.3628 53.8571 52.6822 53.6814 53.0045C51.0284 52.7988 34.605 51.6185 23.9457 53.0336C17.3621 53.9076 8.76973 56.0801 2.88097 57.6981C5.19186 53.2075 8.69688 48.0408 12.659 43.058Z" fill="#2F741F"/>
<path d="M110.991 12.0683C112.841 14.6088 113.913 17.6357 113.913 21.1623C113.913 21.4242 113.905 21.6876 113.893 21.9527C118.492 23.9701 121.701 28.4953 123.479 33.753C119.085 36.9282 113.677 40.513 108.952 42.7007C100.624 46.5554 87.6686 50.211 81.3913 51.8775C81.364 51.5966 81.317 51.3136 81.249 51.0302C85.8459 46.2916 94.1686 37.4526 99.2543 30.4938C103.43 24.7802 108.364 16.5601 110.991 12.0683Z" fill="#2F741F"/>
<path d="M21.5698 32.9892C26.4686 33.935 34.898 35.8141 40.5707 38.4563C45.9308 40.9529 52.2553 45.7276 56.3719 49.0689C55.8665 49.6412 55.4017 50.2498 54.9708 50.882C50.1188 49.3199 38.3847 45.6692 29.8179 44.0452C24.9692 43.126 18.803 42.3738 13.6438 41.8346C16.1892 38.7121 18.8927 35.6914 21.5698 32.9892Z" fill="#2F741F"/>
<path d="M97.2894 3.56794C101.705 4.80029 105.648 6.73821 108.584 9.40209C106.053 13.6317 100.76 22.3119 96.5003 28.1927C91.6991 34.8205 84.2664 43.3363 79.7764 48.3523C79.0389 47.577 78.0063 46.867 76.5861 46.2842C79.1906 41.8275 84.6343 32.3608 87.9897 25.4326C91.4656 18.2555 95.7294 7.54524 97.2894 3.56794Z" fill="#2F741F"/>
<path d="M24.9011 19.1816C30.1869 21.3975 38.7923 25.2274 44.3196 28.8374C51.4609 33.5016 58.0195 42.6723 60.2631 46.0032C59.8295 46.2215 59.4163 46.4639 59.0217 46.7269C55.1608 43.3804 48.8356 38.2582 43.3468 35.4988C37.6187 32.6192 29.1723 30.5305 23.5114 29.3481C23.6616 25.8603 24.1193 22.4105 24.9011 19.1816Z" fill="#2F741F"/>
<path d="M84.8361 1.93997C88.5364 1.93997 92.2354 2.34354 95.6945 3.1582C94.3232 6.43381 89.9753 16.7448 86.6895 23.6467C83.1917 30.9939 77.6962 41.2074 75.2004 45.7948C74.5666 45.6035 73.8721 45.4342 73.1125 45.2886C74.6626 39.4985 77.161 29.7503 78.4315 22.5365C79.5296 16.3009 80.4253 7.897 80.961 2.24744C82.2257 2.04628 83.5196 1.93997 84.8361 1.93997Z" fill="#2F741F"/>
<path d="M33.5888 3.89483C38.3315 8.96804 45.9233 17.3268 50.4202 23.5127C55.3886 30.347 60.5531 39.9545 63.1534 44.9973C62.7011 45.0926 62.2663 45.21 61.8479 45.3482C58.8175 41.2152 51.4516 31.7697 44.224 27.1097C37.9587 23.0702 30.0179 19.3265 25.4089 17.274C27.0533 11.6184 29.7551 6.80074 33.5888 3.89483Z" fill="#2F741F"/>
<path d="M58.3055 1.17033C62.4295 2.33403 66.3085 4.30984 69.8895 6.84977C72.197 5.19952 74.7705 3.8924 77.5308 3.04362C77.0684 8.66992 76.3054 16.7036 75.3086 22.7243C74.1444 29.7566 71.7938 39.2785 70.3425 44.9009C69.7235 44.8417 69.0717 44.7957 68.3855 44.7637C67.6508 40.0685 65.5261 26.8017 63.4621 16.9801C62.014 10.0897 59.8794 4.61481 58.3055 1.17033Z" fill="#2F741F"/>
<path d="M42.4182 0.945905C47.2026 -0.252009 51.7927 -0.263203 56.1314 0.636947C57.5519 3.79058 59.7582 9.25506 61.8045 16.6907C64.4173 26.1852 66.2586 40.165 66.8181 44.7164C66.5571 44.7126 66.2916 44.7093 66.0217 44.7093C65.9101 44.7093 65.7994 44.7102 65.6896 44.7125C57.9361 28.5077 50.9466 18.2449 36.6194 2.11668C38.3686 1.35939 40.2998 0.945917 42.4182 0.945905Z" fill="#2F741F"/>
</svg>
